<?xml version="1.0" encoding="utf-8"?>
<!-- Generator: Adobe Illustrator 25.2.1, SVG Export Plug-In . SVG Version: 6.00 Build 0)  -->
<svg version="1.1" id="Layer_1" xmlns="http://www.w3.org/2000/svg" xmlns:xlink="http://www.w3.org/1999/xlink" x="0px" y="0px"
	 viewBox="0 0 171.26 241.15" style="enable-background:new 0 0 171.26 241.15;" xml:space="preserve">
<style type="text/css">
	.st0{fill:url(#SVGID_1_);}
	.st1{fill:url(#SVGID_2_);}
	.st2{fill:#C1C1C1;}
	.st3{fill:none;stroke:#505050;stroke-linecap:round;stroke-linejoin:round;stroke-miterlimit:10;}
	.st4{fill:#CCCCCC;stroke:#CCCCCC;stroke-linecap:round;stroke-linejoin:round;stroke-miterlimit:10;}
	.st5{fill:url(#SVGID_3_);}
	.st6{fill:#CFCFCF;}
	.st7{fill:#CECECE;}
	.st8{fill:#B1B1B1;}
	.st9{fill:#737373;}
	.st10{fill:none;stroke:#B1B1B1;stroke-linecap:round;stroke-linejoin:round;stroke-miterlimit:10;}
	.st11{fill:#B3B3B3;}
	.st12{fill:#4F4F4F;stroke:#4F4F4F;stroke-linecap:round;stroke-linejoin:round;stroke-miterlimit:10;}
	.st13{fill:#2E2E2E;stroke:#2E2E2E;stroke-linecap:round;stroke-linejoin:round;stroke-miterlimit:10;}
	.st14{fill:#2E2E2E;}
	.st15{fill:#6E6E6E;}
	.st16{fill:#969696;stroke:#777777;stroke-width:0.7;stroke-miterlimit:10;}
	.st17{fill:#969696;}
	.st18{fill:#777777;}
	.st19{fill:#6B6B6B;}
	.st20{fill:#B4B4B4;}
	.st21{fill:none;stroke:#161616;stroke-linecap:round;stroke-linejoin:round;stroke-miterlimit:10;}
	.st22{fill:#8C8C8C;}
	.st23{fill:#5E5E5E;}
	.st24{fill:#DBDBDB;}
	.st25{fill:#D5D5D5;}
	.st26{fill:#020202;}
	.st27{fill:none;stroke:#595959;stroke-linecap:round;stroke-linejoin:round;stroke-miterlimit:10;}
	.st28{fill:#595959;}
	.st29{fill:none;stroke:#A7A7A7;stroke-width:3;stroke-linecap:round;stroke-linejoin:round;stroke-miterlimit:10;}
	.st30{fill:#1E1E1E;}
	.st31{fill:#969696;stroke:#969696;stroke-linecap:round;stroke-linejoin:round;stroke-miterlimit:10;}
	.st32{fill:#6C6C6C;stroke:#6C6C6C;stroke-linecap:round;stroke-linejoin:round;stroke-miterlimit:10;}
	.st33{fill:#525252;}
	.st34{fill:#525252;stroke:#525252;stroke-linecap:round;stroke-linejoin:round;stroke-miterlimit:10;}
	.st35{fill:#787878;}
	.st36{fill:none;stroke:#111111;stroke-miterlimit:10;}
	.st37{fill:none;stroke:#424242;stroke-linecap:round;stroke-miterlimit:10;}
	.st38{fill:#878787;stroke:#363636;stroke-miterlimit:10;}
	.st39{fill:#878787;}
	.st40{fill:#A5A5A5;}
	.st41{fill:none;stroke:#656565;stroke-linecap:round;stroke-linejoin:round;stroke-miterlimit:10;}
	.st42{fill:none;stroke:#A5A5A5;stroke-linecap:round;stroke-linejoin:round;stroke-miterlimit:10;}
	.st43{fill:#F3F3F3;}
	.st44{fill:none;stroke:#222222;stroke-linecap:round;stroke-miterlimit:10;}
	.st45{fill:#656565;}
	.st46{fill:url(#SVGID_4_);}
	.st47{fill:none;stroke:#676767;stroke-linecap:round;stroke-linejoin:round;stroke-miterlimit:10;}
	.st48{fill:none;stroke:#676767;stroke-width:0.7;stroke-linecap:round;stroke-linejoin:round;stroke-miterlimit:10;}
	.st49{fill:#BFBFBF;}
</style>
<g>
	<radialGradient id="SVGID_1_" cx="125.3294" cy="206.0786" r="34.173" gradientUnits="userSpaceOnUse">
		<stop  offset="5.586592e-03" style="stop-color:#CDCDCD"/>
		<stop  offset="0.3923" style="stop-color:#D0D0D0"/>
		<stop  offset="0.6533" style="stop-color:#D9D9D9"/>
		<stop  offset="0.8765" style="stop-color:#E8E8E8"/>
		<stop  offset="1" style="stop-color:#F4F4F4"/>
	</radialGradient>
	<path class="st0" d="M79.4,196.44c0,0,3.01-4.61,8.33-5.31c5.31-0.71,39.5,4.61,59.34,1.24s17.89,7.62,17.89,7.62
		s8.33,0.89,5.85,4.07c-2.48,3.19-35.96,3.9-35.96,3.9s-17.01-0.18-17.89,5.49c-0.89,5.67-2.83,8.5-6.73,7.44
		C106.32,219.82,79.4,196.44,79.4,196.44z"/>
	<radialGradient id="SVGID_2_" cx="97.5719" cy="233.8168" r="13.0207" gradientUnits="userSpaceOnUse">
		<stop  offset="5.586592e-03" style="stop-color:#CDCDCD"/>
		<stop  offset="0.3923" style="stop-color:#D0D0D0"/>
		<stop  offset="0.6533" style="stop-color:#D9D9D9"/>
		<stop  offset="0.8765" style="stop-color:#E8E8E8"/>
		<stop  offset="1" style="stop-color:#F4F4F4"/>
	</radialGradient>
	<path class="st1" d="M96.76,229.03c0,0-2.3,1.42,1.59,3.72c3.9,2.3,10.27,0.35,10.27,0.35s8.5,0.89,5.14,3.01
		c-3.37,2.13-23.91,6.38-27.81,4.25c-3.9-2.13-7.44-3.72-3.9-4.61c3.54-0.89,11.34-9.74,13.82-9.03S96.76,229.03,96.76,229.03z"/>
	<path class="st2" d="M97.62,212.55c0,0-0.21,3.84-3.78,7.41c-3.57,3.57-7.29,6.75-7.29,6.75s-4.43,3.39-4.28,5.09
		c0.15,1.7-0.8,2.5-0.8,2.5s-0.18,0.51,2.38,0.27c5.24-0.51,14.61-11.28,19.91-13.18c5.82-3.22,3.45-4.67,3.06-5.95
		c-0.8-2.11-4.49-3.48-6.69-3.45C97.92,212.01,97.62,212.55,97.62,212.55z"/>
	<path class="st3" d="M106.7,214.88c0,0,1.25,3.24,0.57,4.14c-0.68,0.89-9.25,3.72-12.85,8.39c-3.6,4.67-11.63,7.2-13.72,6.78"/>
	<path class="st4" d="M21.94,158.69l-0.63,5.62c0,0-0.77-0.77-0.77,0.97c0,1.74,0,2.42-0.77,2.42c-0.77,0-0.92,1.31-1.89,1.21
		c-0.97-0.1-9.1,0.68-9-0.15s0.1-1.21,0.1-1.21H7.85l0.1-2.18H5.72l0.1-3.68l0.87,0.1l-0.24-4.6l1.26-0.05l0.05-1.36l2.32,0.05
		l0.15-1.21h6.1l12.54-16.02l1.36-1.89l7.46,3.53l-2.42,4.79L21.94,158.69z"/>
	<radialGradient id="SVGID_3_" cx="62.3713" cy="227.183" r="16.302" gradientUnits="userSpaceOnUse">
		<stop  offset="5.586592e-03" style="stop-color:#CDCDCD"/>
		<stop  offset="0.3923" style="stop-color:#D0D0D0"/>
		<stop  offset="0.6533" style="stop-color:#D9D9D9"/>
		<stop  offset="0.8765" style="stop-color:#E8E8E8"/>
		<stop  offset="1" style="stop-color:#F4F4F4"/>
	</radialGradient>
	<path class="st5" d="M81.17,215.39c0,0-8.33-0.89-13.46,1.42c-5.14,2.3-11.51,5.67-16.3,4.43s-7.62,0.53-6.2,1.59
		c1.42,1.06,12.4-0.18,12.93,3.9c0.53,4.07-7.62,7.26-9.92,8.33c-2.3,1.06-8.5,2.66-3.9,3.9s17.54-3.9,17.54-3.9l13.46-6.38
		c0,0,7.26-12.93,6.73-12.93C81.52,215.74,81.17,215.39,81.17,215.39z"/>
	<path class="st6" d="M26.67,217.82l-8.44,0.08c0,0-1.95-0.08-0.63-1.41c1.33-1.33,1.8-1.41,3.28-1.48s5-0.31,5.78,0.63
		s0.16,2.5,0.16,2.5"/>
	<path class="st7" d="M57.22,194.77c-1.25,0.86-1.9,1.5-3.2,3.75c-4.73,8.16-5.77,11.21-7.27,16.8c-2.11,7.88,0.47,16.49-0.63,20.55
		c-3.52,1.33-14.85-13.13-14.85-13.13s3.13-3.2,5-8.28c1.88-5.08,4.22-14.85,5.16-19.07c0.94-4.22,3.36-7.27,3.36-7.27L57.22,194.77
		z"/>
	<path class="st8" d="M44.48,190.71l-0.16-2.03l11.88,6.1c0,0-10,21.33-10.31,24.46c-2.03,8.13,0.94,15.86-0.86,15.63
		c-1.8-0.23-0.94-12.82-0.94-12.82s4.53-20.08,2.81-21.57s-4.77-4.14-3.44-4.3c1.33-0.16,4.53,2.34,5.78,1.17
		c1.25-1.17,2.34-2.97,1.33-3.67S44.48,190.71,44.48,190.71z"/>
	<path class="st2" d="M19.63,217.28c0,0,8.13-0.86,14.22,4.22c6.1,5.08,8.28,10.08,12.66,13.21c-0.78,2.11,0.94,0-0.86,2.19
		c-1.8,2.19-16.25-16.02-21.49-15.71c-5.24,0.31-8.6,4.92-10.31,3.52S12.13,218.37,19.63,217.28z"/>
	<path class="st7" d="M74.49,188.99c0,0,15.39,17.43,22.66,20.79c7.27,3.36,1.25,9.47,1.25,9.47l-7.35,6.72c0,0-6.32,4.37-7.34,6.01
		c-1.02,1.64-3.7,3.39-4.95,1.35c-1.25-2.03-4.04-6.9-3.34-8.07s7.74-8.13,7.74-8.13s3.75-1.95,1.48-4.84
		c-2.27-2.89-20.55-13.6-22.11-16.1C60.97,193.68,74.49,188.99,74.49,188.99z"/>
	<path class="st8" d="M64.49,195.63c0,0-3.44,1.17-2.5-0.63c0.94-1.8,8.44-5.55,8.44-5.55l4.53-0.55c0,0,7.66,9.85,11.72,12.89
		c4.06,3.05,11.88,8.02,13.44,9.46c3.28,3.02-0.32,7.56-2.58,8.5c-2.27,0.94-0.54-5.68-2.18-7.25
		c-1.64-1.56-12.11-11.25-12.11-11.25s-5-5.78-7.11-5.63s-3.75,2.34-5.63,3.83c-1.88,1.48-3.75,1.48-2.27-0.31
		c1.48-1.8,4.22-4.22,3.67-4.84s-1.64-1.25-3.83-0.7S64.49,195.63,64.49,195.63z"/>
	<path class="st9" d="M15.96,220.72c0,0,8.44-2.5,14.22,2.03c4.13,3.24,15.55,11.64,15.47,14.14c-0.08,2.5-3.28,5.24-9.61,3.91
		c-2.62-0.55-6.3-4.38-10.39-7.35c-5.8-4.19-11.85-7.88-11.8-8.75C13.93,223.22,13.77,222.12,15.96,220.72z"/>
	<path class="st10" d="M90.82,211.81c0,0,2.58,2.19,2.03,4.06"/>
	<path class="st11" d="M40.2,228.14c0,0-0.48-7.75-5.48-9.85c-3.45-1.44-6.56-2.89-9.38-2.66s3.1,2.74,6.38,4.69
		s7.53,6.56,7.53,6.56L40.2,228.14z"/>
	<path class="st12" d="M61,197.07l3.38-4.67l13.22-5.24l-6.12-8.62l1.77-7.49l-38.07-2.41c0,0,5.84,4.1,5.84,10.47
		s-3.72,8.7-2.01,9.43c3.15,1.35,3.93,1.38,4.09,1.87c0.46,0.25,0.23-2.32,0.77-2.06C49.78,191.14,61,197.07,61,197.07z"/>
	<polygon class="st13" points="71.32,178.69 67.61,184.9 71.72,190.14 77.2,187.08 71.64,178.37 	"/>
	<polygon class="st14" points="35.52,168.97 41.9,180.06 46.58,171.36 	"/>
	<path class="st15" d="M55.05,194.61c0,0,6.1-4.12,6.84-6.41c0.73-2.28,0.16-5.56,0.16-5.56l-17.57-7.17l-5.8,10.32L55.05,194.61z"
		/>
	<path class="st16" d="M39.85,33.68c0,0,18.75-15,40-3.75c20,10,16.25,31.25,16.25,31.25L39.85,33.68z"/>
	<g>
		<path class="st17" d="M88.59,92.43c0,0,22.5,6.25,25-3.75s-20.2-38.53-48.74-48.74c-15-5-28.75-7.5-28.75-7.5v3.75
			c0,0-5-5-11.25-6.25c-15-3.75-47.49,5,1.25,38.75c0-8.75,0-8.75,0-12.5c1.25-12.5,10-10,10-10s51.24,11.25,52.49,30
			C88.59,88.68,88.59,92.43,88.59,92.43z"/>
		<path class="st18" d="M88.62,92.41c2.57,0.65,5.25,1.18,7.91,1.51c2.67,0.33,5.37,0.5,8.05,0.28c1.34-0.12,2.67-0.34,3.95-0.76
			c1.27-0.41,2.49-1.05,3.42-2c0.93-0.95,1.53-2.21,1.68-3.53c0.15-1.33-0.07-2.67-0.4-3.96c-0.72-2.59-1.89-5.03-3.25-7.35
			c-1.36-2.32-2.91-4.53-4.56-6.65c-3.33-4.23-7.04-8.15-11.06-11.73c-8.02-7.16-17.15-13.16-27.15-17.16
			c-2.49-1-5.07-1.78-7.65-2.57c-2.58-0.77-5.17-1.51-7.77-2.2c-5.21-1.37-10.46-2.6-15.74-3.61l0.28-0.23l0,3.75l0,0.56l-0.41-0.39
			c-2.48-2.32-5.4-4.25-8.59-5.44c-3.21-1.1-6.67-1.57-10.08-1.51c-3.41,0.06-6.84,0.6-10,1.87c-1.56,0.66-3.04,1.53-4.24,2.7
			c-1.2,1.16-2.05,2.67-2.31,4.31c-0.27,1.63-0.05,3.35,0.55,4.93c0.21,0.82,0.66,1.56,0.99,2.33c0.4,0.75,0.85,1.47,1.29,2.2
			c1.87,2.86,4.22,5.38,6.67,7.77c4.94,4.77,10.43,8.94,16.08,12.87l-0.55,0.29l0-12.5v-0.02l0-0.01c0.26-2,0.63-4.02,1.53-5.88
			c0.88-1.84,2.42-3.49,4.42-4.18c0.98-0.36,2.04-0.5,3.08-0.44c1.06,0.06,2.03,0.37,2.99,0.58c1.94,0.47,3.87,0.98,5.8,1.52
			c7.69,2.16,15.28,4.71,22.6,7.94c3.65,1.62,7.23,3.42,10.62,5.57c3.37,2.14,6.61,4.61,9.06,7.82c1.19,1.61,2.17,3.42,2.63,5.4
			l0.22,1.5c0.06,0.5,0.01,0.99,0.02,1.49l-0.02,2.98L88.62,92.41z M88.56,92.45l-0.08-11.97l-0.02-3c-0.02-0.5,0.02-1.01-0.04-1.5
			l-0.23-1.45c-0.48-1.92-1.45-3.67-2.63-5.25c-2.43-3.14-5.65-5.57-9.01-7.67c-3.37-2.11-6.94-3.88-10.59-5.47
			c-7.3-3.17-14.89-5.66-22.57-7.77c-1.92-0.52-3.85-1.02-5.78-1.48c-0.98-0.21-1.93-0.51-2.87-0.55c-0.95-0.05-1.92,0.07-2.81,0.4
			c-1.8,0.63-3.19,2.1-4.03,3.83c-0.85,1.74-1.21,3.7-1.46,5.64l0-0.03l0,12.5l0,0.67l-0.55-0.38c-5.67-3.94-11.19-8.12-16.15-12.96
			c-2.47-2.42-4.84-4.98-6.74-7.91c-0.45-0.75-0.9-1.49-1.31-2.26c-0.34-0.81-0.79-1.56-1.02-2.42c-0.61-1.64-0.85-3.47-0.55-5.23
			c0.29-1.77,1.22-3.4,2.49-4.62c1.27-1.24,2.82-2.13,4.43-2.81c3.25-1.3,6.74-1.83,10.21-1.89c3.47-0.05,6.95,0.43,10.26,1.57
			c3.27,1.24,6.21,3.19,8.75,5.57l-0.41,0.17l0-3.75l0-0.29l0.28,0.05c5.3,1.02,10.55,2.27,15.77,3.66c2.61,0.69,5.2,1.44,7.78,2.22
			c2.58,0.8,5.16,1.59,7.67,2.6c10.03,4.05,19.18,10.1,27.2,17.31c4.02,3.6,7.73,7.55,11.05,11.8c1.65,2.13,3.19,4.36,4.55,6.69
			c1.36,2.33,2.53,4.79,3.25,7.41c0.32,1.31,0.55,2.67,0.39,4.03c-0.16,1.36-0.77,2.65-1.73,3.62c-0.96,0.98-2.2,1.62-3.49,2.03
			c-1.29,0.42-2.63,0.63-3.98,0.75c-2.7,0.21-5.4,0.03-8.08-0.31C93.83,93.66,91.21,93.16,88.56,92.45z"/>
	</g>
	<g>
		<path class="st18" d="M21.17,39.96c-0.08,0.89-0.31,1.71-0.57,2.52c-0.27,0.8-0.56,1.6-0.99,2.33c-0.43,0.73-1,1.4-1.38,2.16
			c-0.39,0.75-0.66,1.55-0.88,2.38c-0.21,0.83-0.45,1.65-0.76,2.43c-0.29,0.8-0.59,1.58-0.95,2.35c-0.75,1.51-1.6,2.98-2.73,4.33
			l-0.14-0.06c0.25-1.74,0.78-3.35,1.4-4.92c0.33-0.78,0.72-1.53,1.12-2.28c0.38-0.75,0.83-1.48,1.31-2.19
			c0.47-0.71,0.89-1.45,1.19-2.24c0.3-0.79,0.43-1.66,0.68-2.47c0.26-0.81,0.66-1.56,1.07-2.3c0.43-0.73,0.89-1.45,1.5-2.11
			L21.17,39.96z"/>
	</g>
	<g>
		<path class="st18" d="M12.83,39.37c-0.65,2.35-1.58,4.57-2.57,6.76c-1.02,2.18-2.11,4.32-3.48,6.34c0.65-2.35,1.58-4.57,2.57-6.76
			C10.38,43.53,11.47,41.38,12.83,39.37z"/>
	</g>
	<g>
		<path class="st18" d="M4.87,42.39c2.77,1.12,5.53,2.26,8.27,3.43c1.38,0.58,2.78,1.1,4.1,1.78c1.33,0.69,2.63,1.41,3.87,2.28
			l-0.04,0.09c-1.47-0.38-2.87-0.9-4.25-1.47c-1.38-0.57-2.69-1.29-4.02-1.97c-2.67-1.33-5.33-2.69-7.98-4.07L4.87,42.39z"/>
	</g>
	<g>
		<path class="st18" d="M19.83,54.98c-2.55-0.7-5.08-1.42-7.61-2.17c-1.27-0.37-2.55-0.68-3.78-1.15c-1.23-0.48-2.44-1-3.61-1.68
			l0.03-0.09c1.34,0.16,2.62,0.47,3.89,0.82c1.27,0.35,2.49,0.88,3.72,1.34c2.47,0.92,4.93,1.86,7.39,2.83L19.83,54.98z"/>
	</g>
	<g>
		<path class="st18" d="M28.6,42.43c-0.05,0.85-0.28,1.59-0.54,2.3c-0.28,0.7-0.62,1.37-1.02,1.99c-0.4,0.63-0.86,1.21-1.38,1.76
			c-0.53,0.54-1.11,1.05-1.86,1.45c0.05-0.85,0.27-1.59,0.54-2.3c0.28-0.7,0.62-1.37,1.02-1.99c0.4-0.62,0.86-1.21,1.38-1.76
			C27.27,43.35,27.85,42.83,28.6,42.43z"/>
	</g>
	<g>
		<path class="st18" d="M11.12,41.14c2.76,0.91,5.51,1.84,8.25,2.8c1.37,0.47,2.77,0.89,4.1,1.47c1.33,0.59,2.64,1.21,3.9,1.98
			l-0.04,0.09c-1.45-0.27-2.84-0.69-4.22-1.14c-1.38-0.46-2.69-1.08-4.03-1.66c-2.68-1.12-5.34-2.27-8-3.45L11.12,41.14z"/>
	</g>
	<g>
		<path class="st18" d="M71.11,34.86c1.09-0.07,2.15,0.05,3.2,0.21c1.05,0.17,2.08,0.4,3.07,0.77c0.99,0.38,1.93,0.92,2.92,1.28
			c0.98,0.39,2.01,0.63,3.04,0.89c2.08,0.46,4.09,1.24,5.98,2.27c1.83,1.09,3.63,2.47,4.72,4.37c0.02,0.04,0.01,0.08-0.03,0.1
			c-0.03,0.02-0.06,0.01-0.08,0c-1.77-1.2-3.55-2.13-5.38-3.07l-2.72-1.46c-0.94-0.43-1.84-0.96-2.78-1.45
			c-0.92-0.5-1.89-0.92-2.9-1.2c-1.01-0.27-2.08-0.35-3.11-0.55c-2.04-0.46-4.01-1.11-5.96-2.03c-0.04-0.02-0.06-0.06-0.04-0.1
			C71.05,34.88,71.08,34.86,71.11,34.86z"/>
	</g>
	<g>
		<path class="st18" d="M69.45,39.3c1.3,0.15,2.55,0.47,3.78,0.83c1.23,0.38,2.44,0.8,3.6,1.35c1.15,0.57,2.25,1.28,3.4,1.83
			c1.16,0.55,2.35,1,3.58,1.42c1.22,0.42,2.43,0.87,3.59,1.44c1.18,0.53,2.33,1.13,3.44,1.8c0.54,0.37,1.09,0.72,1.61,1.1
			c0.52,0.4,1.02,0.82,1.52,1.25c0.49,0.43,0.93,0.94,1.37,1.42c0.23,0.22,0.39,0.54,0.58,0.81c0.18,0.28,0.35,0.55,0.51,0.84
			c0.02,0.04,0.01,0.08-0.03,0.1c-0.03,0.02-0.06,0.01-0.09-0.01l-0.01-0.01c-1.95-1.67-4.1-2.88-6.29-4.13
			c-1.1-0.61-2.16-1.3-3.27-1.92c-1.1-0.62-2.2-1.27-3.29-1.95c-1.1-0.65-2.22-1.27-3.42-1.71c-1.19-0.47-2.46-0.72-3.67-1.12
			c-1.21-0.39-2.38-0.9-3.54-1.43c-1.16-0.53-2.31-1.09-3.42-1.78c-0.04-0.02-0.05-0.07-0.03-0.11
			C69.4,39.31,69.43,39.29,69.45,39.3z"/>
	</g>
	<g>
		<path class="st18" d="M84.92,34.93c0.35,0.57,0.52,1.15,0.67,1.74c0.13,0.59,0.23,1.19,0.18,1.79c-0.05,0.61-0.26,1.22-0.27,1.82
			c-0.02,0.6,0.09,1.19,0.25,1.79c0.18,0.59,0.29,1.19,0.35,1.8c0.06,0.6,0.12,1.21,0.08,1.82c-0.04,0.61-0.14,1.22-0.33,1.83
			c-0.18,0.59-0.44,1.25-0.95,1.7c-0.03,0.03-0.08,0.03-0.11-0.01c-0.01-0.01-0.02-0.03-0.02-0.05l0-0.02c0-1.21-0.19-2.32-0.2-3.5
			c0-0.58,0.05-1.17,0.1-1.76c0.03-0.59,0.13-1.19,0.25-1.79c0.12-0.6,0.17-1.2,0.08-1.79c-0.08-0.59-0.36-1.17-0.5-1.76
			c-0.21-1.18-0.15-2.37,0.25-3.61c0.01-0.04,0.06-0.07,0.1-0.05C84.89,34.89,84.91,34.91,84.92,34.93z"/>
	</g>
	<g>
		<path class="st18" d="M77.42,32.42c0.64,0.96,0.9,1.98,0.87,3.03c-0.06,0.53-0.25,1.06-0.27,1.58c-0.01,0.52,0.09,1.03,0.25,1.54
			c0.16,0.51,0.29,1.03,0.33,1.56c0.06,0.52,0.1,1.06,0.06,1.59c-0.13,1.04-0.4,2.2-1.26,3.02c-0.03,0.03-0.08,0.03-0.11,0
			c-0.01-0.01-0.02-0.03-0.02-0.05l0-0.01c-0.09-1.09-0.2-2.03-0.21-3.04c-0.01-0.5,0.07-1,0.12-1.5c0.04-0.5,0.13-1.02,0.27-1.53
			c0.11-0.52,0.17-1.03,0.09-1.54c-0.08-0.51-0.36-1-0.5-1.5c-0.21-1.01-0.16-2.03,0.23-3.12c0.01-0.04,0.06-0.07,0.11-0.05
			C77.39,32.4,77.41,32.41,77.42,32.42z"/>
	</g>
	<g>
		<path class="st18" d="M91.72,42.44c0.45,0.88,0.54,1.74,0.35,2.57c-0.13,0.41-0.41,0.81-0.5,1.23c-0.09,0.41-0.05,0.84,0.04,1.28
			c0.1,0.44,0.17,0.87,0.16,1.3c0.01,0.43,0.01,0.86-0.07,1.28c-0.18,0.83-0.48,1.68-1.16,2.4c-0.03,0.03-0.09,0.04-0.12,0
			c-0.01-0.01-0.02-0.03-0.02-0.04c-0.28-0.92-0.33-1.74-0.29-2.58c0.03-0.41,0.14-0.82,0.25-1.23c0.09-0.41,0.24-0.81,0.43-1.22
			c0.18-0.4,0.31-0.81,0.29-1.24c0-0.42-0.21-0.86-0.27-1.29c-0.05-0.85,0.18-1.67,0.75-2.47c0.03-0.04,0.08-0.05,0.12-0.02
			C91.71,42.41,91.71,42.43,91.72,42.44z"/>
	</g>
	<g>
		<path class="st18" d="M111.71,79.3c-0.14,1.55-1.2,2.91-2.38,3.89c-1.21,1-2.62,1.72-4.08,2.2c-0.73,0.25-1.48,0.41-2.22,0.59
			c-0.76,0.1-1.5,0.26-2.26,0.29c-0.76,0.04-1.51,0.08-2.26,0.05c-0.76-0.05-1.51-0.1-2.25-0.22c0.73-0.22,1.46-0.36,2.19-0.52
			l2.15-0.48c1.42-0.34,2.83-0.68,4.18-1.15l1.01-0.34l0.98-0.41c0.65-0.27,1.28-0.6,1.88-0.97
			C109.84,81.51,110.98,80.62,111.71,79.3z"/>
	</g>
	<g>
		<path class="st18" d="M109.14,91.88c-0.54-0.49-0.93-1.06-1.25-1.66c-0.33-0.6-0.56-1.24-0.73-1.9c-0.15-0.67-0.23-1.37-0.16-2.09
			c0.06-0.69,0.31-1.53,0.95-1.93c-0.08,0.72,0.09,1.27,0.22,1.87l0.45,1.8c0.15,0.61,0.28,1.23,0.37,1.88
			C109.1,90.5,109.18,91.16,109.14,91.88z"/>
	</g>
	<g>
		<path class="st18" d="M97.83,94.03c0.5-0.96,1.08-1.82,1.69-2.66c0.6-0.84,1.25-1.64,1.91-2.43c0.66-0.78,1.34-1.54,2.03-2.29
			c0.67-0.77,1.4-1.46,2-2.34c-0.01,1.11-0.54,2.12-1.05,3.03c-0.53,0.93-1.16,1.77-1.83,2.57c-0.68,0.8-1.41,1.55-2.19,2.24
			C99.6,92.85,98.77,93.5,97.83,94.03z"/>
	</g>
	<g>
		<path class="st18" d="M96.32,85.6c-0.08,0.94-0.43,1.66-1.01,2.21c-0.32,0.25-0.75,0.42-1.03,0.7c-0.28,0.28-0.46,0.64-0.59,1.04
			c-0.12,0.4-0.28,0.78-0.49,1.12c-0.2,0.35-0.39,0.7-0.65,0.99c-0.54,0.58-1.16,1.1-2.02,1.43c-0.05,0.02-0.1-0.01-0.11-0.05
			c-0.01-0.01-0.01-0.03-0.01-0.04c0.1-0.92,0.45-1.65,0.87-2.32c0.22-0.33,0.51-0.6,0.8-0.88c0.27-0.29,0.6-0.53,0.96-0.75
			c0.35-0.23,0.66-0.49,0.86-0.83c0.21-0.34,0.26-0.8,0.42-1.17c0.39-0.7,0.99-1.23,1.88-1.54c0.05-0.02,0.1,0.01,0.11,0.05
			C96.32,85.57,96.32,85.59,96.32,85.6z"/>
	</g>
	<g>
		<path class="st19" d="M112.96,85.55c0.11-0.15,0.32,0.01,0.37,0.13c0.08,0.13,0.13,0.28,0.17,0.42c0.07,0.29,0.09,0.6,0.07,0.9
			c-0.03,0.6-0.19,1.2-0.42,1.76c-0.49,1.12-1.32,2.08-2.28,2.82c-1.94,1.49-4.31,2.2-6.62,2.57c-2.33,0.34-4.68,0.37-6.98,0.16
			c-2.31-0.21-4.58-0.62-6.8-1.26c2.31,0.02,4.59,0.1,6.85,0.09c2.26-0.03,4.51-0.12,6.7-0.47c1.1-0.15,2.18-0.39,3.22-0.73
			c1.05-0.31,2.04-0.76,2.96-1.32c0.9-0.57,1.73-1.29,2.3-2.2c0.29-0.45,0.52-0.95,0.66-1.48c0.07-0.26,0.11-0.54,0.11-0.81
			c0-0.14-0.01-0.28-0.04-0.4C113.21,85.61,113.1,85.45,112.96,85.55z"/>
	</g>
	<path class="st20" d="M139.21,100.55c0,0-0.62-1.87,5-1.25c4.97,0.55,3.75,8.75,3.75,8.75s-2.5,7.5-7.5,3.75
		c-0.62,1.87,1.25,3.75-2.5,3.75c-2.5,0-2.5-3.75-2.5-3.75s-6.25,3.75-6.25,0c0.28-1.13,1.63-3.87,0-5c-3.79-2.62-5-8.75-2.5-10
		c7.5-5,8.96,2.13,10.62,4.37C138.63,102.92,139.21,100.55,139.21,100.55z"/>
	<path class="st21" d="M136.71,93.05c0,0,2.5,7.5,1.25,8.75"/>
	<path class="st7" d="M26.05,51.36l0.67,24.19c0,0-14.37,25.62,15,32.5c2.99,0.83,8.12-1.28,8.12,0.62c0,1.25,0,5,0,5h10.62v-5.68
		c0,0,11.88-3.07,14.38-6.82s7.5-6.25,7.5-6.25s3.27,1.95,5.38-0.9c2.12-2.85,7.99-15.81,1.93-15.58
		c-6.06,0.23-11.06-13.52-11.06-13.52l-15.67-10l-18.07-3.75C44.85,51.18,31,46.54,26.05,51.36z"/>
	<path class="st21" d="M145.46,96.8c0,0-5.93,0.8-7.34,4.77"/>
	<circle class="st22" cx="121.71" cy="124.3" r="2.5"/>
	<circle class="st23" cx="129.21" cy="119.3" r="2.5"/>
	<circle class="st24" cx="112.96" cy="125.55" r="2.5"/>
	<circle class="st25" cx="104.84" cy="123.67" r="1.87"/>
	<ellipse class="st26" cx="34.85" cy="78.68" rx="2.5" ry="5"/>
	<ellipse cx="63.59" cy="78.68" rx="2.5" ry="5"/>
	<path class="st27" d="M44.85,88.68c-3.75,0-5-1.25-5-3.75c0-2.5,6.25-6.25,6.25-6.25"/>
	<g>
		<path class="st28" d="M56.89,93.06c-0.06,1.13-0.3,2.25-0.73,3.32c-0.45,1.06-1.14,2.07-2.15,2.76c-0.99,0.67-2.27,1.1-3.46,0.88
			c-0.6-0.04-1.15-0.28-1.71-0.44c-0.53-0.25-1.03-0.54-1.51-0.85c-0.02-0.02-0.03-0.05-0.01-0.07c0.01-0.02,0.03-0.02,0.05-0.02
			l0.01,0c0.58,0.06,1.13,0.16,1.66,0.27c0.27,0.01,0.54,0.05,0.81,0.07c0.26,0.03,0.53,0.08,0.79,0.05c0.26,0,0.52-0.01,0.77,0.01
			c0.25-0.02,0.5-0.06,0.75-0.09c0.26,0,0.49-0.11,0.74-0.17l0.36-0.12l0.33-0.19c0.9-0.5,1.61-1.34,2.12-2.3
			c0.52-0.95,0.9-2.02,1.08-3.12c0-0.03,0.03-0.05,0.06-0.04C56.87,93.01,56.89,93.03,56.89,93.06z"/>
	</g>
	<line class="st29" x1="27.7" y1="85.5" x2="34.37" y2="85.5"/>
	<line class="st29" x1="67.7" y1="86.75" x2="74.37" y2="86.75"/>
	<path class="st30" d="M80.02,86.12c0,0-0.18-7.44,8.57-7.44s-8.75-31.25-43.74-32.5c-29.37-3.12-25,13.75-25,13.75
		s3.23-8.02,5-6.25c1.87,3.12-0.62,14.37,1.25,8.75s1.25-12.5,6.25-12.5c2.5,1.25,6.25,12.5,11.25,15c-1.25-5-2.35-12.47-2.35-12.47
		s7.35,9.97,13.6,12.47c-2.5-7.5-2.5-10-2.5-10s11.25,10,15,11.25c3.75,1.25-3.75-3.75-2.5-8.75c5,0,13.75,11.25,15,13.75
		S80.02,86.12,80.02,86.12z"/>
	<path class="st31" d="M78.97,170.39c0,0-24.58,5.72-45.11-2.28c5-13.75,7.25-18.62,7.25-18.62l0.25-7.63c0,0-10.91-2.04-14.83-9.14
		c7.33-5.86,14.83-15.85,14.83-15.85s6.23-3.75,8.12-3.75c1.88,0,8.13,1.25,11.88-1.25c3.75-2.5,22.5,23.75,22.5,23.75l-8.75,13.75
		L78.97,170.39z"/>
	<polygon class="st32" points="61.09,157.42 68.59,172.42 54.5,172.42 	"/>
	<path class="st32" d="M61.09,143.67c0,0-2.5,17.5-20,16.25c1.25-3.75,2.5-7.5,2.5-7.5L61.09,143.67z"/>
	<g>
		<path class="st33" d="M59.85,148.67c-0.82,1.54-1.87,2.97-3.05,4.28c-1.19,1.31-2.55,2.47-4.08,3.42
			c-1.52,0.98-3.26,1.62-5.06,1.98c-1.81,0.42-3.69,0.27-5.53,0.04c-0.55-0.07-0.94-0.57-0.87-1.12s0.57-0.94,1.12-0.87
			c0.03,0,0.06,0.01,0.09,0.01l0.1,0.02c1.59,0.34,3.23,0.65,4.88,0.43c1.64-0.17,3.28-0.59,4.79-1.37c1.52-0.75,2.93-1.74,4.21-2.9
			C57.71,151.43,58.88,150.13,59.85,148.67z"/>
	</g>
	<path class="st32" d="M67.01,143.67c0,0,1.58,7.5,9.08,16.25c0-3.75-1.25-11.25-1.25-11.25L67.01,143.67z"/>
	<g>
		<path class="st33" d="M73.9,151.49c-0.71-0.35-1.25-0.72-1.81-1.14c-0.55-0.42-1.06-0.87-1.53-1.36c-0.95-0.97-1.71-2.1-2.24-3.29
			c0.82,1.02,1.79,1.87,2.87,2.51c0.53,0.33,1.09,0.61,1.66,0.84c0.56,0.23,1.18,0.44,1.69,0.54c0.55,0.1,0.91,0.63,0.8,1.18
			c-0.1,0.55-0.63,0.91-1.18,0.8C74.07,151.56,73.98,151.53,73.9,151.49z"/>
	</g>
	<polygon class="st34" points="41.1,132.42 34.16,140.06 41.34,142.58 	"/>
	<path class="st35" d="M53.6,117.42c0,0,8.75,0,10-2.5c1.25-2.5-1.25-2.5-1.25-2.5s-8.75,2.5-13.13,1.25
		c-2.16-0.62-4.53,1.75-4.53,1.75S47.35,117.42,53.6,117.42z"/>
	<polyline class="st36" points="26.04,222.2 23.62,222.2 23.54,223.76 20.1,223.45 19.87,225.01 17.29,224.54 16.74,226.26 	"/>
	<polyline class="st36" points="30.89,226.11 27.29,226.03 27.37,227.51 24.79,227.28 24.87,228.53 21.43,228.45 21.43,229.7 	"/>
	<polyline class="st36" points="35.81,229.86 32.14,229.47 32.45,230.8 29.01,230.8 29.09,232.05 24.48,231.89 	"/>
	<polyline class="st36" points="39.4,233.22 36.43,233.22 36.36,234.55 33.46,234.39 33.54,235.41 28.7,235.41 	"/>
	<polyline class="st36" points="44.09,235.64 42.68,235.56 42.76,236.81 39.87,236.81 39.79,238.14 37.37,237.52 37.29,239.31 
		33.85,239.16 	"/>
	<path class="st37" d="M25.96,216.26l2.42,0.16l0.08,1.33l2.34-0.16l0.23,1.8l1.33-0.16l0.63,1.41l1.41-0.08
		c0,0,5.25,4.85,4.93,6.41"/>
	<path class="st38" d="M79.77,218.36c0,0,4.21,6.75,10.22,8.15c0.45,0.8-2.84,3.3-2.84,3.3s-6.64,1.58-10.89-7.8
		C75.76,219.49,79.77,218.36,79.77,218.36z"/>
	<g>
		<path class="st39" d="M101.11,212.2c0.67,0.71,0.92,1.65,0.76,2.55c-0.08,0.44-0.26,0.85-0.49,1.21
			c-0.23,0.34-0.47,0.65-0.72,0.95c-1.01,1.19-2.11,2.27-3.21,3.34c-1.1,1.07-2.24,2.11-3.45,3.07l-3.55,2.93l3.39-3.11
			c1.15-1.02,2.22-2.1,3.26-3.23c1.04-1.12,2.07-2.25,2.99-3.45c0.22-0.3,0.44-0.6,0.62-0.91c0.17-0.29,0.28-0.6,0.32-0.92
			c0.09-0.62-0.18-1.29-0.59-1.68l-0.03-0.03c-0.2-0.19-0.21-0.51-0.02-0.71c0.19-0.2,0.51-0.21,0.71-0.02
			C101.1,212.19,101.11,212.19,101.11,212.2z"/>
	</g>
	<g>
		<path class="st40" d="M31.17,138.7c0.9,0.67,1.64,1.38,2.36,2.16c0.35,0.39,0.69,0.8,1.01,1.22l0.24,0.32
			c0.11,0.2,0.23,0.42,0.23,0.61c0.06,0.41-0.03,0.71-0.11,1c-0.39,1.11-1.01,1.94-1.63,2.78c-0.63,0.82-1.3,1.6-1.98,2.36
			c-1.37,1.52-2.81,2.96-4.29,4.37c-1.48,1.39-2.97,2.78-4.57,4.05c1.51-1.36,2.91-2.83,4.3-4.31c1.38-1.49,2.72-3.01,3.98-4.59
			c0.63-0.79,1.24-1.59,1.79-2.42c0.54-0.82,1.08-1.7,1.31-2.54c0.05-0.2,0.07-0.4,0.04-0.5c0-0.07-0.04-0.06-0.04-0.1l-0.23-0.28
			c-0.32-0.37-0.65-0.73-1-1.07c-0.69-0.67-1.47-1.32-2.24-1.82l-0.03-0.02c-0.35-0.23-0.44-0.69-0.22-1.04
			c0.23-0.35,0.69-0.44,1.04-0.22C31.14,138.68,31.15,138.69,31.17,138.7z"/>
	</g>
	<path class="st41" d="M15.79,158.59c-0.15,0-1.6,0-1.6,0v2.71l-0.1,1.02l-3.53,0.15l-0.05,1.31l7.31-0.29"/>
	<line class="st42" x1="9.88" y1="164.55" x2="5.77" y2="165.17"/>
	<line class="st42" x1="9.94" y1="161.71" x2="7.03" y2="161.11"/>
	<line class="st42" x1="14.48" y1="164.74" x2="8.57" y2="168.24"/>
	<line class="st42" x1="16.95" y1="165.61" x2="13.78" y2="168.84"/>
	<line class="st10" x1="80.09" y1="229.88" x2="78.45" y2="232.07"/>
	<line class="st10" x1="78.13" y1="230.11" x2="77.61" y2="230.63"/>
	<line class="st10" x1="77.64" y1="229" x2="77.08" y2="229.22"/>
	<line class="st10" x1="76.9" y1="227.69" x2="76.52" y2="228.1"/>
	<path class="st43" d="M163.58,63.68c0,0-6.87,8.12-24.37,3.12s-22.93-19.62-22.93-19.62l6.64-21.44c0,0,22.53-23.94,27.53-23.94
		s5.82,0,5.82,0S168.58,58.68,163.58,63.68z"/>
	<path class="st25" d="M150.46,6.81c0,0-6.25,13.75-18.75,20c-2.5,2.5-7.77,11.76-7.77,11.76s-10.98,8.24-2.23-5.51
		C127.12,24.56,141.71,5.56,150.46,6.81z"/>
	<path class="st25" d="M161.71,63.06c0,0,3.75,6.25-20,5C134.21,65.55,161.71,63.06,161.71,63.06z"/>
	<path class="st44" d="M158.58,59.93c-7.5-2.5-20.78-15.62-20.78-15.62"/>
	<path class="st44" d="M132.34,47.43c0,0,12.5,13.75,20,15"/>
	<path class="st44" d="M124.12,49.93c0,0,12.5,13.91,20.35,15.71"/>
	<path class="st44" d="M135.21,64.2c0,0,20.88-3.02,23.38-6.77"/>
	<path class="st44" d="M128.8,59.31c0,0,13.53,0.62,22.28-4.37"/>
	<path class="st44" d="M124.12,54.24c0,0,18.05,0.44,23.13-5.06"/>
	<path class="st45" d="M156.71,0.56c3.12,1.87-11.87,41.87-41.73,46.87C103.59,64.93,31.1,174.92,31.1,174.92s-6.05,2.66-4.9-2.42
		c1.15-3.24,76.4-113.59,85.8-127.79C112.06,32.39,135.36-5.01,156.71,0.56z M118.08,41.18c26.76-10,34.26-37.5,34.26-37.5
		C139.21,5.56,121.09,28.68,118.08,41.18z"/>
	<radialGradient id="SVGID_4_" cx="133.0803" cy="21.4631" r="20.6542" gradientUnits="userSpaceOnUse">
		<stop  offset="0" style="stop-color:#656565"/>
		<stop  offset="1" style="stop-color:#1E1E1E"/>
	</radialGradient>
	<path class="st46" d="M152.96,0.56c0,0,0,2.5-2.5,3.75c-14.37,6.87-31.25,26.25-32.5,37.5c-4.37,1.87-5,0-5,0
		s8.12-30.62,35.11-41.24C154.83-0.06,152.96,0.56,152.96,0.56z"/>
	<path class="st7" d="M81.17,148.67c0,0,2.43-6.25-3.82-10s-7.5-7.5-7.5-7.5s2.5-11.25,0-13.75c-1.49-1.49-10.97-2.16-8.66,3.23
		c-0.34,0.28-1.45-0.78-1.82-0.45c-0.13,0.88-0.87,2.57-0.59,3.05c-0.36,0.35-1.25-0.93-1.64-0.54c-0.4,0.4-0.26,1.93-1.08,3
		c-0.4,0.64-1.66,1.4-1.89,2.16c-1.07,3.52,0.09,7.05,8.19,7.05c3.75,3.75,7.5,16.25,13.75,16.25
		C78.59,151.17,81.17,148.67,81.17,148.67z"/>
	<line class="st47" x1="56.45" y1="125.97" x2="59.37" y2="127.33"/>
	<line class="st47" x1="58.67" y1="123.35" x2="61.27" y2="124.49"/>
	<line class="st48" x1="61.4" y1="120.55" x2="63.82" y2="121.39"/>
	<g>
		<path class="st49" d="M62.97,116.8c-1.23,0.02-2.13,1.26-1.98,2.42c0.02,0.29,0.1,0.57,0.2,0.85c0.04,0.14,0.09,0.29,0.07,0.47
			c-0.01,0.09-0.09,0.19-0.19,0.2c-0.09,0.02-0.17,0-0.25-0.02c-0.3-0.08-0.56-0.22-0.83-0.32c-0.25-0.1-0.61-0.21-0.64,0.02
			c0.01,0.55-0.16,1.2-0.37,1.73c-0.09,0.27-0.17,0.55-0.14,0.81c0.01,0.13,0.06,0.25,0.11,0.38c0.02,0.04,0.03,0.07,0.05,0.12
			c0,0.01,0.01,0.03,0.01,0.06l0,0.04c0,0.05-0.08,0.12-0.13,0.12c-0.11,0-0.13-0.04-0.15-0.05c-0.08-0.06-0.13-0.1-0.18-0.15
			c-0.22-0.2-0.43-0.39-0.67-0.53c-0.24-0.15-0.49-0.21-0.6-0.06c-0.3,0.36-0.17,1.02-0.31,1.63c-0.27,1.29-1.39,2.06-2.08,2.92
			c-0.35,0.44-0.58,0.93-0.62,1.47c-0.04,0.53,0.08,1.09,0.28,1.62c0.39,1.06,1.09,1.98,2.05,2.51c0.96,0.54,2.1,0.75,3.24,0.82
			c0.57,0.04,1.15,0.03,1.74,0.02c0.08-0.01,0.44,0,0.63,0.12c0.19,0.1,0.33,0.22,0.46,0.34c0.25,0.24,0.43,0.49,0.62,0.74
			c0.7,1.01,1.26,2.05,1.83,3.09c1.13,2.08,2.24,4.15,3.51,6.1c1.27,1.93,2.69,3.84,4.51,5.04c0.9,0.59,1.92,0.91,2.9,0.79
			c0.98-0.12,1.92-0.66,2.73-1.37c0.31-0.27,0.78-0.24,1.06,0.07c0.27,0.31,0.24,0.78-0.07,1.06c0,0-0.01,0.01-0.02,0.01
			c-0.97,0.81-2.17,1.5-3.56,1.64c-1.39,0.14-2.74-0.37-3.78-1.09c-2.1-1.48-3.48-3.52-4.75-5.53c-1.25-2.04-2.32-4.16-3.4-6.26
			c-0.54-1.04-1.08-2.1-1.7-3.04c-0.32-0.44-0.68-0.96-0.96-0.86c-0.59-0.01-1.19-0.02-1.8-0.08c-1.2-0.11-2.45-0.36-3.53-1.02
			c-1.1-0.65-1.87-1.75-2.25-2.91c-0.2-0.58-0.32-1.21-0.26-1.86c0.06-0.65,0.37-1.26,0.77-1.73c0.8-0.92,1.82-1.59,2.08-2.7
			c0.17-0.51-0.02-1.17,0.45-1.77c0.13-0.15,0.37-0.21,0.55-0.17c0.18,0.03,0.33,0.11,0.46,0.2c0.27,0.17,0.49,0.38,0.7,0.58
			c0.05,0.05,0.11,0.1,0.15,0.13c0.01,0.01,0.02,0-0.05,0c-0.04-0.01-0.11,0.06-0.11,0.1l0,0.02c0,0.01,0,0.02,0,0.01l-0.03-0.08
			c-0.06-0.15-0.11-0.31-0.12-0.47c-0.03-0.33,0.07-0.64,0.18-0.92c0.23-0.56,0.39-1.06,0.41-1.7c0.03-0.2,0.3-0.31,0.45-0.26
			c0.16,0.02,0.31,0.08,0.45,0.14c0.28,0.11,0.54,0.26,0.81,0.34c0.14,0.04,0.26,0.04,0.28-0.07c0.02-0.12-0.01-0.27-0.05-0.4
			c-0.09-0.28-0.17-0.58-0.18-0.88C60.77,118.02,61.74,116.78,62.97,116.8z"/>
	</g>
</g>
</svg>
