<?xml version="1.0" encoding="utf-8"?>
<!-- Generator: Adobe Illustrator 25.2.1, SVG Export Plug-In . SVG Version: 6.00 Build 0)  -->
<svg version="1.1" id="Layer_1" xmlns="http://www.w3.org/2000/svg" xmlns:xlink="http://www.w3.org/1999/xlink" x="0px" y="0px"
	 viewBox="0 0 42.37 42.37" style="enable-background:new 0 0 42.37 42.37;" xml:space="preserve">
<style type="text/css">
	.st0{fill:#B2B2B2;}
	.st1{fill:#707070;}
</style>
<circle class="st0" cx="21.19" cy="21.19" r="21.19"/>
<g>
	<path class="st1" d="M25.68,23.85c0.93,0,1.82-0.01,2.71,0c0.21,0,0.3-0.04,0.33-0.27c0.12-1.06,0.27-2.11,0.41-3.16
		c0-0.03-0.01-0.07-0.01-0.13c-0.12-0.01-0.23-0.02-0.35-0.03c-0.94,0-1.87-0.01-2.81,0c-0.22,0-0.31-0.05-0.3-0.29
		c0.01-0.66,0-1.32,0-1.98c0.01-1.14,0.48-1.62,1.63-1.63c0.55-0.01,1.1,0,1.65,0c0.09,0,0.18-0.01,0.29-0.01
		c0.01-0.08,0.02-0.15,0.02-0.22c0-0.9,0-1.8,0.01-2.7c0-0.21-0.06-0.29-0.28-0.3c-0.92-0.03-1.83-0.11-2.75-0.1
		c-2.37,0.03-4.07,1.62-4.23,3.99c-0.07,0.97-0.05,1.94-0.05,2.92c0,0.25-0.06,0.33-0.32,0.33c-0.8-0.01-1.6,0-2.4-0.01
		c-0.24,0-0.34,0.06-0.33,0.32c0.02,0.99,0.01,1.98,0.01,2.98c0,0.08,0,0.16,0,0.28c1.01,0,2.01,0,3.02,0
		c0.01,0.13,0.02,0.22,0.02,0.31c0,2.79,0,5.59,0.01,8.38c0,0.24-0.07,0.31-0.31,0.31c-3.57-0.01-7.15-0.02-10.72,0
		c-0.79,0.01-1.39-0.59-1.38-1.39c0.02-6.83,0.02-13.67,0-20.5c0-0.79,0.58-1.4,1.41-1.4c6.83,0.02,13.67,0.02,20.5,0
		c0.79,0,1.39,0.59,1.38,1.39c-0.02,6.83-0.02,13.67,0,20.5c0,0.8-0.58,1.42-1.41,1.4c-1.81-0.04-3.62-0.02-5.43-0.01
		c-0.26,0-0.35-0.06-0.35-0.33c0.01-2.78,0.01-5.57,0.01-8.35C25.66,24.06,25.67,23.97,25.68,23.85z"/>
</g>
</svg>
