<?xml version="1.0" encoding="utf-8"?>
<!-- Generator: Adobe Illustrator 25.2.1, SVG Export Plug-In . SVG Version: 6.00 Build 0)  -->
<svg version="1.1" id="Layer_1" xmlns="http://www.w3.org/2000/svg" xmlns:xlink="http://www.w3.org/1999/xlink" x="0px" y="0px"
	 viewBox="0 0 42.37 42.37" style="enable-background:new 0 0 42.37 42.37;" xml:space="preserve">
<style type="text/css">
	.st0{fill:#B2B2B2;}
	.st1{fill:#707070;}
</style>
<circle class="st0" cx="21.19" cy="21.19" r="21.19"/>
<g>
	<path class="st1" d="M9.57,28.65c2.54,0.2,4.83-0.45,6.85-2.02c-2.14-0.23-3.62-1.3-4.44-3.36c0.72,0.09,1.39,0.11,2.06-0.11
		c-2.33-0.74-3.6-2.3-3.78-4.79c0.7,0.35,1.38,0.55,2.12,0.55c-0.96-0.77-1.65-1.7-1.93-2.91c-0.28-1.21-0.11-2.36,0.5-3.49
		c2.63,3.07,5.93,4.76,9.97,5.04c-0.03-0.32-0.06-0.59-0.07-0.87c-0.08-1.69,0.56-3.08,1.89-4.11c1.21-0.92,2.58-1.18,4.06-0.84
		c0.85,0.2,1.59,0.62,2.21,1.22c0.16,0.15,0.29,0.15,0.48,0.11c0.92-0.23,1.79-0.56,2.64-1c-0.32,1.07-1.01,1.85-1.9,2.51
		c0.89-0.07,1.73-0.32,2.58-0.61c-0.24,0.31-0.46,0.64-0.73,0.91c-0.46,0.47-0.96,0.9-1.44,1.35c-0.08,0.07-0.15,0.2-0.15,0.3
		c0.02,1.05-0.07,2.1-0.29,3.13c-0.32,1.55-0.87,3.02-1.68,4.38c-0.94,1.6-2.13,2.97-3.62,4.08c-1.19,0.89-2.5,1.55-3.92,1.99
		c-1.47,0.46-2.99,0.65-4.52,0.62c-1.92-0.04-3.77-0.44-5.51-1.27c-0.48-0.23-0.96-0.49-1.44-0.73C9.55,28.72,9.56,28.69,9.57,28.65
		z"/>
</g>
</svg>
