<?xml version="1.0" encoding="utf-8"?>
<!-- Generator: Adobe Illustrator 25.2.1, SVG Export Plug-In . SVG Version: 6.00 Build 0)  -->
<svg version="1.1" id="Layer_1" xmlns="http://www.w3.org/2000/svg" xmlns:xlink="http://www.w3.org/1999/xlink" x="0px" y="0px"
	 viewBox="0 0 368.5 198.43" style="enable-background:new 0 0 368.5 198.43;" xml:space="preserve">
<style type="text/css">
	.st0{fill:none;stroke:#DB8B34;stroke-miterlimit:10;}
	.st1{fill:#6D6E70;}
	.st2{font-family:'DINPro-Bold';}
	.st3{font-size:30.0318px;}
	.st4{font-family:'DINPro-Light';}
	.st5{font-size:13.9427px;}
	.st6{letter-spacing:5;}
	.st7{fill:#6D6E70;stroke:#DB8B34;stroke-width:0.5;stroke-miterlimit:10;}
	.st8{fill:url(#SVGID_1_);}
	.st9{fill:url(#SVGID_2_);}
	.st10{fill:#B7C1DF;}
	.st11{fill:none;stroke:#4C5065;stroke-width:0.5257;stroke-linecap:round;stroke-linejoin:round;stroke-miterlimit:10;}
	.st12{fill:#EDC989;stroke:#EDC989;stroke-width:0.5257;stroke-linecap:round;stroke-linejoin:round;stroke-miterlimit:10;}
	.st13{fill:url(#SVGID_3_);}
	.st14{fill:url(#SVGID_4_);}
	.st15{fill:#EECD86;}
	.st16{fill:#EECC8D;}
	.st17{fill:#E0A66E;}
	.st18{fill:#737284;}
	.st19{fill:none;stroke:#E0A66E;stroke-width:0.5257;stroke-linecap:round;stroke-linejoin:round;stroke-miterlimit:10;}
	.st20{fill:#C3AABB;}
	.st21{fill:#804128;stroke:#804128;stroke-width:0.5257;stroke-linecap:round;stroke-linejoin:round;stroke-miterlimit:10;}
	.st22{fill:#502218;stroke:#502218;stroke-width:0.5257;stroke-linecap:round;stroke-linejoin:round;stroke-miterlimit:10;}
	.st23{fill:#502218;}
	.st24{fill:#A95F32;}
	.st25{fill:#D68B35;stroke:#B16A33;stroke-width:0.368;stroke-miterlimit:10;}
	.st26{fill:#D68B35;}
	.st27{fill:#B16A33;}
	.st28{fill:#956231;}
	.st29{fill:#D27B33;stroke:#B16A33;stroke-width:0.1314;stroke-miterlimit:10;}
	.st30{fill:#E3B338;}
	.st31{fill:none;stroke:#231818;stroke-width:0.5257;stroke-linecap:round;stroke-linejoin:round;stroke-miterlimit:10;}
	.st32{fill:#EDCB8E;}
	.st33{fill:#908B87;}
	.st34{fill:#506565;}
	.st35{fill:#DEDBD5;}
	.st36{fill:#DBD8BB;}
	.st37{fill:#080908;}
	.st38{fill:#050605;}
	.st39{fill:none;stroke:#814E2A;stroke-width:0.5257;stroke-linecap:round;stroke-linejoin:round;stroke-miterlimit:10;}
	.st40{fill:#814E2A;}
	.st41{fill:none;stroke:#D98F9F;stroke-width:1.5771;stroke-linecap:round;stroke-linejoin:round;stroke-miterlimit:10;}
	.st42{fill:#2C1B1A;}
	.st43{fill:#58AAD3;stroke:#58AAD3;stroke-width:0.5257;stroke-linecap:round;stroke-linejoin:round;stroke-miterlimit:10;}
	.st44{fill:#1C8DB3;stroke:#1C8DB3;stroke-width:0.5257;stroke-linecap:round;stroke-linejoin:round;stroke-miterlimit:10;}
	.st45{fill:#2D618F;}
	.st46{fill:#2D618F;stroke:#2D618F;stroke-width:0.5257;stroke-linecap:round;stroke-linejoin:round;stroke-miterlimit:10;}
	.st47{fill:#1B96D4;}
	.st48{fill:none;stroke:#141519;stroke-width:0.5257;stroke-miterlimit:10;}
	.st49{fill:none;stroke:#453B6A;stroke-width:0.5257;stroke-linecap:round;stroke-miterlimit:10;}
	.st50{fill:#8681B0;stroke:#3A353E;stroke-width:0.5257;stroke-miterlimit:10;}
	.st51{fill:#8681B0;}
	.st52{fill:#DB975F;}
	.st53{fill:none;stroke:#A85130;stroke-width:0.5257;stroke-linecap:round;stroke-linejoin:round;stroke-miterlimit:10;}
	.st54{fill:none;stroke:#DB975F;stroke-width:0.5257;stroke-linecap:round;stroke-linejoin:round;stroke-miterlimit:10;}
	.st55{fill:#F4F4F4;}
	.st56{fill:#D4D5D8;}
	.st57{fill:none;stroke:#222221;stroke-width:0.5257;stroke-linecap:round;stroke-miterlimit:10;}
	.st58{fill:#A85130;}
	.st59{fill:url(#SVGID_7_);}
	.st60{fill:#EDCD88;}
	.st61{fill:none;stroke:#9E5A30;stroke-width:0.5257;stroke-linecap:round;stroke-linejoin:round;stroke-miterlimit:10;}
	.st62{fill:none;stroke:#9E5A30;stroke-width:0.368;stroke-linecap:round;stroke-linejoin:round;stroke-miterlimit:10;}
	.st63{fill:#E5B978;}
</style>
<path class="st0" d="M-39.36,110.67"/>
<text transform="matrix(1 0 0 1 78.9912 167.5359)" class="st1 st2 st3">BUG Hunters</text>
<text transform="matrix(1 0 0 1 14.1734 190.2566)" class="st1 st4 st5 st6">searching seek and REPORT</text>
<line class="st7" x1="14.89" y1="173.89" x2="349.14" y2="173.89"/>
<path class="st0" d="M349.14,110.67"/>
<g>
	<radialGradient id="SVGID_1_" cx="207.2968" cy="116.4077" r="14.3736" gradientUnits="userSpaceOnUse">
		<stop  offset="5.586592e-03" style="stop-color:#CFCDCE"/>
		<stop  offset="0.3924" style="stop-color:#D1D0D1"/>
		<stop  offset="0.6535" style="stop-color:#D9D8D9"/>
		<stop  offset="0.8769" style="stop-color:#E9E7E7"/>
		<stop  offset="1" style="stop-color:#F5F5F4"/>
	</radialGradient>
	<path class="st8" d="M187.98,112.35c0,0,1.27-1.94,3.5-2.24c2.24-0.3,16.62,1.94,24.96,0.52c8.34-1.42,7.53,3.2,7.53,3.2
		s3.5,0.37,2.46,1.71s-15.13,1.64-15.13,1.64s-7.15-0.07-7.53,2.31s-1.19,3.58-2.83,3.13S187.98,112.35,187.98,112.35z"/>
	<radialGradient id="SVGID_2_" cx="195.6217" cy="128.0747" r="5.4767" gradientUnits="userSpaceOnUse">
		<stop  offset="5.586592e-03" style="stop-color:#CFCDCE"/>
		<stop  offset="0.3924" style="stop-color:#D1D0D1"/>
		<stop  offset="0.6535" style="stop-color:#D9D8D9"/>
		<stop  offset="0.8769" style="stop-color:#E9E7E7"/>
		<stop  offset="1" style="stop-color:#F5F5F4"/>
	</radialGradient>
	<path class="st9" d="M195.28,126.06c0,0-0.97,0.6,0.67,1.56c1.64,0.97,4.32,0.15,4.32,0.15s3.58,0.37,2.16,1.27
		c-1.42,0.89-10.06,2.68-11.7,1.79c-1.64-0.89-3.13-1.56-1.64-1.94c1.49-0.37,4.77-4.1,5.81-3.8S195.28,126.06,195.28,126.06z"/>
	<path class="st10" d="M195.64,119.13c0,0-0.09,1.61-1.59,3.12s-3.07,2.84-3.07,2.84s-1.86,1.43-1.8,2.14s-0.34,1.05-0.34,1.05
		s-0.07,0.22,1,0.11c2.2-0.21,6.15-4.74,8.37-5.54c2.45-1.36,1.45-1.96,1.29-2.5c-0.34-0.89-1.89-1.46-2.82-1.45
		C195.77,118.9,195.64,119.13,195.64,119.13z"/>
	<path class="st11" d="M199.46,120.11c0,0,0.53,1.36,0.24,1.74c-0.29,0.38-3.89,1.56-5.41,3.53c-1.51,1.96-4.89,3.03-5.77,2.85"/>
	<path class="st12" d="M163.81,96.47l-0.26,2.36c0,0-0.33-0.33-0.33,0.41c0,0.73,0,1.02-0.33,1.02s-0.39,0.55-0.79,0.51
		s-3.83,0.29-3.79-0.06s0.04-0.51,0.04-0.51h-0.47l0.04-0.92h-0.94l0.04-1.55l0.37,0.04l-0.1-1.93l0.53-0.02l0.02-0.57l0.98,0.02
		l0.06-0.51h2.57l5.27-6.74l0.57-0.79l3.14,1.49l-1.02,2.02L163.81,96.47z"/>
	<radialGradient id="SVGID_3_" cx="180.8158" cy="125.2844" r="6.8568" gradientUnits="userSpaceOnUse">
		<stop  offset="5.586592e-03" style="stop-color:#CFCDCE"/>
		<stop  offset="0.3924" style="stop-color:#D1D0D1"/>
		<stop  offset="0.6535" style="stop-color:#D9D8D9"/>
		<stop  offset="0.8769" style="stop-color:#E9E7E7"/>
		<stop  offset="1" style="stop-color:#F5F5F4"/>
	</radialGradient>
	<path class="st13" d="M188.72,120.32c0,0-3.5-0.37-5.66,0.6s-4.84,2.38-6.85,1.86c-2.01-0.52-3.2,0.22-2.61,0.67
		s5.22-0.07,5.44,1.64c0.22,1.71-3.2,3.05-4.17,3.5c-0.97,0.45-3.58,1.12-1.64,1.64c1.94,0.52,7.38-1.64,7.38-1.64l5.66-2.68
		c0,0,3.05-5.44,2.83-5.44S188.72,120.32,188.72,120.32z"/>
	<radialGradient id="SVGID_4_" cx="245.1634" cy="111.1092" r="8.9089" gradientUnits="userSpaceOnUse">
		<stop  offset="5.586592e-03" style="stop-color:#CFCDCE"/>
		<stop  offset="0.3143" style="stop-color:#D3D2D2"/>
		<stop  offset="0.658" style="stop-color:#E0DFDF"/>
		<stop  offset="1" style="stop-color:#F5F5F4"/>
	</radialGradient>
	<path class="st14" d="M234.17,111.61c0,0,12.96-2.68,16.76-3.28c3.8-0.6,6.78-0.3,6.41,0.45s-2.83,2.24-2.83,2.24
		s1.27,1.19-0.3,1.94s-16.32,2.16-19.67,0.45C231.19,111.68,234.17,111.61,234.17,111.61z"/>
	<path class="st15" d="M165.8,121.35l-3.55,0.03c0,0-0.82-0.03-0.26-0.59c0.56-0.56,0.76-0.59,1.38-0.62s2.1-0.13,2.43,0.26
		s0.07,1.05,0.07,1.05"/>
	<path class="st16" d="M178.65,111.65c-0.53,0.36-0.8,0.63-1.35,1.58c-1.99,3.43-2.43,4.72-3.06,7.07c-0.89,3.32,0.2,6.94-0.26,8.64
		c-1.48,0.56-6.24-5.52-6.24-5.52s1.31-1.35,2.1-3.48s1.77-6.24,2.17-8.02s1.41-3.06,1.41-3.06L178.65,111.65z"/>
	<path class="st17" d="M173.29,109.94l-0.07-0.85l5,2.56c0,0-4.21,8.97-4.34,10.29c-0.85,3.42,0.39,6.67-0.36,6.57
		c-0.76-0.1-0.39-5.39-0.39-5.39s1.91-8.45,1.18-9.07c-0.72-0.62-2-1.74-1.45-1.81c0.56-0.07,1.91,0.99,2.43,0.49
		c0.53-0.49,0.99-1.25,0.56-1.54S173.29,109.94,173.29,109.94z"/>
	<path class="st10" d="M162.84,121.12c0,0,3.42-0.36,5.98,1.77c2.56,2.14,3.48,4.24,5.32,5.55c-0.33,0.89,0.39,0-0.36,0.92
		c-0.76,0.92-6.84-6.74-9.04-6.61c-2.2,0.13-3.62,2.07-4.34,1.48C159.68,123.65,159.68,121.58,162.84,121.12z"/>
	<path class="st16" d="M185.91,109.22c0,0,6.47,7.33,9.53,8.74s0.52,3.98,0.52,3.98l-3.09,2.83c0,0-2.66,1.84-3.09,2.53
		c-0.43,0.69-1.55,1.42-2.08,0.57c-0.53-0.85-1.7-2.9-1.4-3.4s3.25-3.42,3.25-3.42s1.58-0.82,0.62-2.04
		c-0.95-1.22-8.64-5.72-9.3-6.77C180.23,111.19,185.91,109.22,185.91,109.22z"/>
	<path class="st17" d="M181.71,112.01c0,0-1.45,0.49-1.05-0.26c0.39-0.76,3.55-2.33,3.55-2.33l1.91-0.23c0,0,3.22,4.14,4.93,5.42
		c1.71,1.28,5,3.37,5.65,3.98c1.38,1.27-0.13,3.18-1.09,3.57s-0.23-2.39-0.92-3.05c-0.69-0.66-5.09-4.73-5.09-4.73
		s-2.1-2.43-2.99-2.37s-1.58,0.99-2.37,1.61s-1.58,0.62-0.95-0.13s1.77-1.77,1.54-2.04s-0.69-0.53-1.61-0.3
		S181.71,112.01,181.71,112.01z"/>
	<path class="st18" d="M161.29,122.56c0,0,3.55-1.05,5.98,0.85c1.74,1.36,6.54,4.9,6.51,5.95c-0.03,1.05-1.38,2.2-4.04,1.64
		c-1.1-0.23-2.65-1.84-4.37-3.09c-2.44-1.76-4.98-3.32-4.96-3.68C160.44,123.62,160.37,123.16,161.29,122.56z"/>
	<path class="st19" d="M192.78,118.82c0,0,1.08,0.92,0.85,1.71"/>
	<path class="st20" d="M171.49,125.69c0,0-0.2-3.26-2.31-4.14c-1.45-0.61-2.76-1.22-3.94-1.12c-1.18,0.1,1.3,1.15,2.68,1.97
		c1.38,0.82,3.17,2.76,3.17,2.76L171.49,125.69z"/>
	<path class="st21" d="M180.24,112.62l1.42-1.97l5.56-2.2l-2.58-3.63l0.75-3.15l-16.01-1.01c0,0,2.45,1.72,2.45,4.4
		s-1.56,3.66-0.85,3.97c1.32,0.57,1.65,0.58,1.72,0.79c0.19,0.11,0.1-0.98,0.33-0.87C175.52,110.12,180.24,112.62,180.24,112.62z"/>
	<polygon class="st22" points="184.58,104.89 183.02,107.5 184.75,109.7 187.05,108.41 184.71,104.75 	"/>
	<polygon class="st23" points="169.52,100.8 172.21,105.47 174.17,101.8 	"/>
	<path class="st24" d="M177.74,111.58c0,0,2.57-1.73,2.88-2.69c0.31-0.96,0.07-2.34,0.07-2.34l-7.39-3.02l-2.44,4.34L177.74,111.58z
		"/>
	<g>
		<defs>
			<rect id="SVGID_5_" x="123.04" width="140.18" height="140.18"/>
		</defs>
		<clipPath id="SVGID_6_">
			<use xlink:href="#SVGID_5_"  style="overflow:visible;"/>
		</clipPath>
	</g>
	<path class="st25" d="M171.34,43.9c0,0,7.89-6.31,16.82-1.58c8.41,4.21,6.83,13.14,6.83,13.14L171.34,43.9z"/>
	<g>
		<path class="st26" d="M191.84,68.6c0,0,9.46,2.63,10.51-1.58c1.05-4.21-8.49-16.21-20.5-20.5c-6.31-2.1-12.09-3.15-12.09-3.15
			v1.58c0,0-2.1-2.1-4.73-2.63c-6.31-1.58-19.98,2.1,0.53,16.3c0-3.68,0-3.68,0-5.26c0.53-5.26,4.21-4.21,4.21-4.21
			s21.55,4.73,22.08,12.62C191.84,67.03,191.84,68.6,191.84,68.6z"/>
		<path class="st27" d="M191.86,68.59c2.17,0.53,4.46,0.91,6.71,0.75c1.11-0.11,2.29-0.35,3.09-1.16c0.39-0.4,0.64-0.93,0.7-1.48
			c0.06-0.56-0.03-1.12-0.17-1.66c-0.63-2.18-1.92-4.1-3.29-5.88c-1.4-1.78-2.96-3.43-4.65-4.93c-3.38-3.01-7.22-5.53-11.41-7.21
			c-4.25-1.54-8.67-2.64-13.1-3.52l0.15-0.12l0,1.58l0,0.29l-0.22-0.2c-1.04-0.97-2.27-1.78-3.6-2.28c-1.35-0.46-2.8-0.66-4.23-0.63
			c-1.43,0.03-2.87,0.26-4.2,0.79c-1.29,0.53-2.53,1.52-2.74,2.93c-0.11,0.68-0.02,1.4,0.23,2.06c0.22,0.67,0.58,1.3,0.95,1.9
			c0.78,1.2,1.77,2.26,2.8,3.27c2.07,2.01,4.39,3.76,6.76,5.41l-0.27,0.14l-0.01-5.26v-0.01l0-0.01c0.11-0.84,0.26-1.7,0.64-2.49
			c0.37-0.78,1.03-1.48,1.88-1.78c0.42-0.16,0.87-0.21,1.31-0.19c0.45,0.02,0.86,0.16,1.27,0.25c0.82,0.2,1.63,0.42,2.44,0.64
			c3.23,0.91,6.43,1.98,9.51,3.35c1.54,0.68,3.04,1.44,4.47,2.35c1.42,0.9,2.78,1.94,3.81,3.3c0.5,0.68,0.91,1.44,1.11,2.28
			c0.18,0.85,0.06,1.68,0.09,2.51L191.86,68.59z M191.83,68.62l-0.04-5.03c-0.04-0.83,0.06-1.71-0.12-2.5
			c-0.2-0.8-0.61-1.54-1.1-2.2c-1.02-1.32-2.37-2.34-3.79-3.22c-1.42-0.89-2.92-1.63-4.45-2.3c-3.07-1.33-6.26-2.38-9.49-3.26
			c-0.81-0.22-1.62-0.43-2.43-0.62c-0.41-0.09-0.81-0.21-1.2-0.23c-0.4-0.02-0.8,0.03-1.17,0.17c-0.75,0.26-1.33,0.87-1.68,1.59
			c-0.35,0.73-0.51,1.55-0.61,2.36l0-0.02l-0.01,5.26l0,0.33l-0.27-0.19c-2.38-1.66-4.7-3.42-6.79-5.46
			c-1.04-1.02-2.04-2.1-2.84-3.33c-0.39-0.62-0.75-1.27-0.98-1.98c-0.26-0.69-0.36-1.46-0.24-2.21c0.12-0.75,0.52-1.44,1.05-1.96
			c0.54-0.52,1.19-0.9,1.87-1.19c1.37-0.55,2.84-0.77,4.3-0.8c1.46-0.02,2.93,0.18,4.33,0.66c1.38,0.52,2.62,1.34,3.69,2.35
			l-0.22,0.09l0-1.58l0-0.15l0.15,0.03c4.45,0.9,8.86,2.01,13.13,3.57c4.22,1.7,8.07,4.25,11.44,7.29c1.69,1.52,3.25,3.18,4.65,4.97
			c1.37,1.8,2.66,3.73,3.28,5.94c0.14,0.55,0.23,1.13,0.16,1.7c-0.07,0.57-0.33,1.12-0.73,1.53c-0.83,0.83-2.03,1.07-3.15,1.17
			C196.3,69.56,194.04,69.18,191.83,68.62z"/>
	</g>
	<g>
		<path class="st27" d="M163.49,46.54c-0.04,0.76-0.26,1.44-0.61,2.06c-0.2,0.3-0.45,0.58-0.62,0.89c-0.17,0.31-0.27,0.66-0.35,1.01
			c-0.15,0.71-0.4,1.38-0.68,2.03c-0.32,0.63-0.7,1.24-1.22,1.79l-0.07-0.03c0.06-0.75,0.26-1.44,0.52-2.1
			c0.3-0.65,0.62-1.28,1.06-1.86c0.21-0.3,0.4-0.6,0.51-0.94c0.12-0.34,0.16-0.71,0.25-1.05c0.23-0.67,0.6-1.29,1.13-1.83
			L163.49,46.54z"/>
	</g>
	<g>
		<path class="st27" d="M159.98,46.29c-0.24,1-0.62,1.94-1.03,2.86c-0.22,0.46-0.44,0.91-0.69,1.35c-0.25,0.44-0.51,0.88-0.82,1.29
			c0.11-0.5,0.28-0.99,0.45-1.46c0.17-0.48,0.37-0.94,0.58-1.4C158.9,48.02,159.37,47.12,159.98,46.29z"/>
	</g>
	<g>
		<path class="st27" d="M156.63,47.55c1.17,0.46,2.34,0.93,3.49,1.41c0.58,0.24,1.18,0.45,1.73,0.74c0.55,0.31,1.1,0.6,1.61,1
			l-0.02,0.05c-0.63-0.13-1.22-0.35-1.81-0.57c-0.58-0.23-1.13-0.55-1.69-0.84c-1.12-0.57-2.23-1.15-3.34-1.74L156.63,47.55z"/>
	</g>
	<g>
		<path class="st27" d="M162.92,52.86c-1.08-0.28-2.15-0.57-3.21-0.88c-0.53-0.15-1.08-0.27-1.59-0.48
			c-0.51-0.22-1.02-0.43-1.5-0.75l0.02-0.05c0.57,0.03,1.11,0.17,1.65,0.3c0.54,0.14,1.04,0.37,1.56,0.58
			c1.04,0.39,2.07,0.8,3.1,1.23L162.92,52.86z"/>
	</g>
	<g>
		<path class="st27" d="M166.61,47.58c0.01,0.75-0.25,1.33-0.57,1.86c-0.35,0.52-0.76,0.99-1.45,1.29
			c-0.01-0.75,0.24-1.33,0.57-1.86C165.51,48.35,165.92,47.88,166.61,47.58z"/>
	</g>
	<g>
		<path class="st27" d="M159.26,47.03c1.17,0.37,2.33,0.75,3.48,1.14c0.58,0.19,1.17,0.36,1.73,0.61c0.55,0.26,1.11,0.52,1.62,0.88
			l-0.02,0.05c-0.62-0.08-1.21-0.26-1.79-0.44c-0.58-0.19-1.13-0.46-1.69-0.71c-1.12-0.48-2.24-0.98-3.35-1.49L159.26,47.03z"/>
	</g>
	<g>
		<path class="st27" d="M184.49,44.38c0.92-0.09,1.81,0.06,2.65,0.36c0.41,0.17,0.8,0.42,1.22,0.58c0.41,0.17,0.85,0.26,1.29,0.36
			c0.89,0.17,1.74,0.48,2.54,0.92c0.77,0.47,1.52,1.07,1.95,1.91c0.01,0.02,0,0.04-0.02,0.05c-0.01,0.01-0.03,0.01-0.04,0
			c-0.78-0.47-1.53-0.83-2.3-1.22l-1.13-0.62c-0.39-0.18-0.77-0.42-1.15-0.64c-0.38-0.22-0.79-0.41-1.21-0.52
			c-0.43-0.11-0.88-0.13-1.32-0.19c-0.86-0.18-1.68-0.47-2.49-0.91c-0.02-0.01-0.03-0.04-0.02-0.06
			C184.47,44.39,184.48,44.38,184.49,44.38z"/>
	</g>
	<g>
		<path class="st27" d="M183.8,46.25c1.11,0.1,2.15,0.41,3.13,0.87c0.48,0.26,0.93,0.57,1.42,0.81c0.48,0.24,0.99,0.42,1.51,0.58
			c1.04,0.32,2.03,0.78,2.98,1.33c0.91,0.59,1.82,1.32,2.31,2.35c0.01,0.02,0,0.04-0.02,0.05c-0.01,0.01-0.03,0-0.05-0.01
			c-0.85-0.67-1.76-1.15-2.68-1.67c-0.9-0.54-1.83-1.06-2.73-1.66c-0.46-0.28-0.92-0.56-1.43-0.74c-0.5-0.19-1.04-0.28-1.56-0.43
			c-1.02-0.34-1.98-0.79-2.91-1.4c-0.02-0.01-0.02-0.04-0.01-0.06C183.77,46.25,183.78,46.25,183.8,46.25z"/>
	</g>
	<g>
		<path class="st27" d="M190.31,44.42c0.32,0.47,0.44,0.97,0.41,1.48c-0.04,0.26-0.14,0.52-0.15,0.77c-0.02,0.25,0.05,0.5,0.12,0.75
			c0.18,0.5,0.23,1.01,0.22,1.53c-0.06,0.5-0.16,1.08-0.61,1.49c-0.02,0.01-0.04,0.01-0.06,0c-0.01-0.01-0.01-0.01-0.01-0.02l0-0.02
			c-0.04-0.52-0.15-0.98-0.16-1.47c0.02-0.49,0.05-0.98,0.19-1.49c0.06-0.25,0.1-0.51,0.05-0.75c-0.04-0.25-0.17-0.49-0.25-0.74
			c-0.1-0.49-0.06-1,0.16-1.52c0.01-0.02,0.04-0.03,0.06-0.02C190.29,44.4,190.3,44.41,190.31,44.42z"/>
	</g>
	<g>
		<path class="st27" d="M187.15,43.37c0.32,0.4,0.45,0.83,0.42,1.27c-0.04,0.22-0.14,0.45-0.15,0.67c-0.01,0.22,0.04,0.43,0.12,0.65
			c0.17,0.43,0.22,0.88,0.21,1.33c-0.06,0.44-0.2,0.94-0.6,1.27c-0.02,0.02-0.05,0.01-0.06-0.01c-0.01-0.01-0.01-0.01-0.01-0.02
			l0-0.01c-0.08-0.47-0.16-0.86-0.16-1.28c0.02-0.42,0.06-0.84,0.2-1.27c0.06-0.22,0.1-0.44,0.05-0.65
			c-0.04-0.21-0.17-0.42-0.25-0.63c-0.1-0.42-0.06-0.85,0.15-1.32c0.01-0.02,0.04-0.03,0.06-0.02
			C187.14,43.36,187.15,43.36,187.15,43.37z"/>
	</g>
	<g>
		<path class="st27" d="M193.17,47.58c0.25,0.37,0.29,0.74,0.2,1.08c-0.07,0.17-0.2,0.34-0.25,0.51c-0.05,0.17-0.02,0.35,0.04,0.54
			c0.12,0.37,0.12,0.73,0.08,1.09c-0.08,0.35-0.23,0.71-0.56,1c-0.02,0.02-0.05,0.02-0.07,0c0,0-0.01-0.01-0.01-0.02
			c-0.16-0.4-0.21-0.74-0.2-1.09c0.05-0.34,0.13-0.69,0.33-1.02c0.09-0.17,0.15-0.34,0.14-0.52c-0.01-0.18-0.11-0.37-0.15-0.55
			c-0.03-0.36,0.08-0.7,0.37-1.03c0.02-0.02,0.05-0.02,0.07,0C193.16,47.57,193.17,47.58,193.17,47.58z"/>
	</g>
	<g>
		<path class="st27" d="M201.57,63.08c-0.03,0.66-0.46,1.26-0.96,1.69c-0.51,0.44-1.11,0.75-1.73,0.95c-0.62,0.2-1.26,0.32-1.9,0.36
			c-0.64,0.04-1.28-0.01-1.91-0.13c1.23-0.37,2.43-0.58,3.56-0.97c0.57-0.17,1.11-0.42,1.62-0.7
			C200.74,63.97,201.24,63.63,201.57,63.08z"/>
	</g>
	<g>
		<path class="st27" d="M200.49,68.38c-0.5-0.39-0.76-0.92-0.91-1.48c-0.06-0.29-0.1-0.58-0.05-0.89c0.03-0.3,0.17-0.66,0.46-0.82
			c-0.01,0.31,0.09,0.54,0.15,0.79c0.08,0.24,0.14,0.49,0.2,0.74C200.46,67.23,200.56,67.75,200.49,68.38z"/>
	</g>
	<g>
		<path class="st27" d="M195.73,69.28c0.38-0.84,0.91-1.53,1.46-2.19c0.28-0.32,0.57-0.64,0.87-0.95c0.29-0.32,0.62-0.58,0.89-0.95
			c0.02,0.47-0.18,0.92-0.39,1.31c-0.21,0.4-0.48,0.75-0.76,1.1C197.21,68.26,196.56,68.86,195.73,69.28z"/>
	</g>
	<g>
		<path class="st27" d="M195.1,65.74c0.01,0.43-0.13,0.74-0.38,0.97c-0.15,0.1-0.34,0.16-0.46,0.27c-0.13,0.11-0.19,0.27-0.24,0.45
			c-0.08,0.36-0.25,0.65-0.45,0.91c-0.23,0.24-0.51,0.44-0.91,0.56c-0.03,0.01-0.05-0.01-0.06-0.03c0,0,0-0.01,0-0.01
			c0.01-0.42,0.13-0.74,0.31-1.02c0.21-0.26,0.44-0.5,0.77-0.66c0.16-0.09,0.3-0.19,0.37-0.34c0.08-0.15,0.09-0.35,0.15-0.52
			c0.15-0.3,0.42-0.52,0.84-0.61c0.03-0.01,0.05,0.01,0.06,0.04C195.1,65.73,195.1,65.73,195.1,65.74z"/>
	</g>
	<g>
		<path class="st28" d="M202.1,65.71c0.04-0.07,0.14,0,0.16,0.05c0.04,0.06,0.06,0.12,0.08,0.18c0.03,0.13,0.04,0.25,0.04,0.38
			c-0.01,0.26-0.07,0.51-0.16,0.76c-0.2,0.48-0.55,0.9-0.96,1.22c-0.82,0.64-1.83,0.95-2.81,1.11c-1.98,0.29-3.96,0.04-5.81-0.54
			c1.94-0.04,3.85,0.05,5.69-0.24c0.91-0.13,1.81-0.38,2.58-0.83c0.38-0.23,0.72-0.52,0.97-0.89c0.13-0.18,0.23-0.39,0.29-0.61
			c0.03-0.11,0.05-0.22,0.05-0.34C202.21,65.87,202.23,65.67,202.1,65.71z"/>
	</g>
	<ellipse class="st29" cx="198.42" cy="18.01" rx="4.2" ry="4.34"/>
	
		<ellipse transform="matrix(0.6528 -0.7576 0.7576 0.6528 56.8039 151.1011)" class="st29" cx="193.23" cy="13.59" rx="0.63" ry="2.1"/>
	<ellipse class="st29" cx="198.49" cy="11.26" rx="0.63" ry="1.88"/>
	
		<ellipse transform="matrix(0.7857 -0.6186 0.6186 0.7857 35.577 128.8279)" class="st29" cx="203.74" cy="13.06" rx="2.1" ry="0.63"/>
	
		<ellipse transform="matrix(0.6528 -0.7576 0.7576 0.6528 53.7955 162.1664)" class="st29" cx="203.8" cy="22.4" rx="0.63" ry="2.1"/>
	<ellipse class="st29" cx="198.54" cy="24.73" rx="0.63" ry="1.88"/>
	
		<ellipse transform="matrix(0.7857 -0.6186 0.6186 0.7857 27.2327 124.4705)" class="st29" cx="193.28" cy="22.93" rx="2.1" ry="0.63"/>
	<ellipse class="st29" cx="205.32" cy="17.79" rx="2.1" ry="0.63"/>
	<ellipse class="st29" cx="191.65" cy="17.79" rx="2.1" ry="0.63"/>
	<path class="st30" d="M213.14,72.02c0,0-0.26-0.79,2.1-0.53c2.09,0.23,1.58,3.68,1.58,3.68s-1.05,3.15-3.15,1.58
		c-0.26,0.79,0.53,1.58-1.05,1.58c-1.05,0-1.05-1.58-1.05-1.58s-2.63,1.58-2.63,0c0.12-0.47,0.68-1.63,0-2.1
		c-1.59-1.1-2.1-3.68-1.05-4.21c3.15-2.1,3.77,0.89,4.47,1.84C212.89,73.02,213.14,72.02,213.14,72.02z"/>
	<path class="st31" d="M212.08,68.87c0,0,1.05,3.15,0.53,3.68"/>
	<path class="st32" d="M165.54,51.33l0.28,10.18c0,0-6.05,10.78,6.31,13.67c1.26,0.35,3.42-0.54,3.42,0.26c0,0.53,0,2.1,0,2.1h4.47
		v-2.39c0,0,5-1.29,6.05-2.87c1.05-1.58,3.15-2.63,3.15-2.63s1.37,0.82,2.26-0.38s3.36-6.65,0.81-6.55
		c-2.55,0.1-4.65-5.69-4.65-5.69l-6.59-4.21l-7.6-1.58C173.44,51.26,167.62,49.31,165.54,51.33z"/>
	<path class="st31" d="M215.76,70.44c0,0-2.5,0.33-3.09,2.01"/>
	<circle class="st33" cx="205.78" cy="82.01" r="1.05"/>
	<circle class="st34" cx="208.93" cy="79.91" r="1.05"/>
	<circle class="st35" cx="202.1" cy="82.54" r="1.05"/>
	<circle class="st36" cx="198.68" cy="81.75" r="0.79"/>
	<ellipse class="st37" cx="169.24" cy="62.82" rx="1.05" ry="2.1"/>
	<ellipse class="st38" cx="181.33" cy="62.82" rx="1.05" ry="2.1"/>
	<path class="st39" d="M173.44,67.03c-1.58,0-2.1-0.53-2.1-1.58c0-1.05,2.63-2.63,2.63-2.63"/>
	<g>
		<path class="st40" d="M178.51,68.87c-0.02,0.48-0.11,0.95-0.29,1.41c-0.19,0.45-0.48,0.88-0.91,1.18
			c-0.42,0.3-0.97,0.48-1.48,0.39c-0.26-0.03-0.49-0.13-0.73-0.2c-0.22-0.11-0.43-0.24-0.63-0.39c-0.01-0.01-0.01-0.03-0.01-0.04
			c0.01-0.01,0.02-0.01,0.03-0.01c0.25,0.01,0.48,0.05,0.7,0.08c0.23,0,0.45,0.06,0.66,0.03c0.43,0.02,0.84-0.03,1.22-0.22
			c0.75-0.42,1.18-1.34,1.37-2.24c0-0.01,0.01-0.02,0.03-0.02C178.5,68.84,178.51,68.86,178.51,68.87z"/>
	</g>
	<line class="st41" x1="166.23" y1="65.69" x2="169.04" y2="65.69"/>
	<line class="st41" x1="183.06" y1="66.22" x2="185.86" y2="66.22"/>
	<path class="st42" d="M188.24,65.95c0,0-0.07-3.13,3.61-3.13s-3.68-13.14-18.4-13.67c-12.35-1.31-10.51,5.78-10.51,5.78
		s1.36-3.37,2.1-2.63c0.79,1.31-0.26,6.05,0.53,3.68c0.79-2.37,0.53-5.26,2.63-5.26c1.05,0.53,2.63,5.26,4.73,6.31
		c-0.53-2.1-0.99-5.24-0.99-5.24s3.09,4.19,5.72,5.24c-1.05-3.15-1.05-4.21-1.05-4.21s4.73,4.21,6.31,4.73
		c1.58,0.53-1.58-1.58-1.05-3.68c2.1,0,5.78,4.73,6.31,5.78C188.69,60.72,188.24,65.95,188.24,65.95z"/>
	<path class="st43" d="M187.8,101.4c0,0-10.34,2.41-18.97-0.96c2.1-5.78,3.05-7.83,3.05-7.83l0.1-3.21c0,0-4.59-0.86-6.24-3.85
		c3.08-2.46,6.24-6.67,6.24-6.67s2.62-1.58,3.41-1.58s3.42,0.53,5-0.53c1.58-1.05,9.46,9.99,9.46,9.99l-3.68,5.78L187.8,101.4z"/>
	<polygon class="st44" points="180.28,95.94 183.43,102.25 177.5,102.25 	"/>
	<path class="st44" d="M180.28,90.16c0,0-1.05,7.36-8.41,6.83c0.53-1.58,1.05-3.15,1.05-3.15L180.28,90.16z"/>
	<g>
		<path class="st45" d="M179.75,92.26c-0.69,1.29-1.69,2.46-2.97,3.29c-0.64,0.42-1.37,0.7-2.14,0.87
			c-0.77,0.19-1.57,0.13-2.36,0.04c-0.29-0.03-0.5-0.29-0.46-0.58s0.29-0.5,0.58-0.46c0.02,0,0.04,0.01,0.06,0.01l0.05,0.01
			c0.65,0.15,1.33,0.29,2.02,0.2c0.68-0.06,1.37-0.23,2-0.55C177.8,94.47,178.92,93.46,179.75,92.26z"/>
	</g>
	<path class="st44" d="M182.77,90.16c0,0,0.67,3.15,3.82,6.83c0-1.58-0.53-4.73-0.53-4.73L182.77,90.16z"/>
	<g>
		<path class="st45" d="M185.63,93.55c-0.31-0.16-0.53-0.32-0.77-0.51c-0.23-0.18-0.44-0.39-0.64-0.6c-0.39-0.42-0.7-0.92-0.91-1.42
			c0.36,0.42,0.78,0.76,1.24,1.02c0.23,0.13,0.46,0.24,0.7,0.33c0.23,0.09,0.5,0.17,0.7,0.19c0.29,0.04,0.5,0.31,0.46,0.6
			s-0.31,0.5-0.6,0.46c-0.06-0.01-0.12-0.03-0.17-0.05L185.63,93.55z"/>
	</g>
	<polygon class="st46" points="171.87,85.43 168.95,88.64 171.97,89.7 	"/>
	<path class="st47" d="M177.12,79.12c0,0,3.68,0,4.21-1.05c0.53-1.05-0.53-1.05-0.53-1.05s-3.68,1.05-5.52,0.53
		c-0.91-0.26-1.91,0.74-1.91,0.74S174.5,79.12,177.12,79.12z"/>
	<polyline class="st48" points="165.53,123.19 164.52,123.19 164.48,123.85 163.04,123.71 162.94,124.37 161.85,124.17 
		161.62,124.9 	"/>
	<polyline class="st48" points="167.57,124.83 166.06,124.8 166.09,125.42 165.01,125.32 165.04,125.85 163.6,125.82 163.6,126.34 	
		"/>
	<polyline class="st48" points="169.64,126.41 168.1,126.25 168.23,126.8 166.78,126.8 166.82,127.33 164.88,127.26 	"/>
	<polyline class="st48" points="171.16,127.82 169.91,127.82 169.87,128.38 168.66,128.32 168.69,128.74 166.65,128.74 	"/>
	<polyline class="st48" points="173.13,128.84 172.54,128.81 172.57,129.33 171.35,129.33 171.32,129.89 170.3,129.63 
		170.27,130.39 168.82,130.32 	"/>
	<path class="st49" d="M165.5,120.69l1.02,0.07l0.03,0.56l0.99-0.07l0.1,0.76l0.56-0.07l0.26,0.59l0.59-0.03c0,0,2.21,2.04,2.07,2.7
		"/>
	<path class="st50" d="M188.13,121.57c0,0,1.77,2.84,4.3,3.43c0.19,0.34-1.19,1.39-1.19,1.39s-2.79,0.66-4.58-3.28
		C186.45,122.05,188.13,121.57,188.13,121.57z"/>
	<g>
		<path class="st51" d="M197.15,118.94c0.29,0.32,0.4,0.73,0.33,1.12c-0.07,0.39-0.33,0.68-0.53,0.93c-0.43,0.5-0.9,0.95-1.36,1.4
			c-0.92,0.91-1.97,1.68-2.96,2.5c0.93-0.89,1.92-1.72,2.78-2.68c0.43-0.47,0.87-0.95,1.24-1.46c0.19-0.26,0.36-0.5,0.38-0.76
			c0.03-0.25-0.08-0.52-0.24-0.66l-0.01-0.01c-0.11-0.1-0.11-0.26-0.02-0.37c0.1-0.11,0.26-0.11,0.37-0.02
			C197.14,118.93,197.14,118.94,197.15,118.94z"/>
	</g>
	<g>
		<path class="st52" d="M167.73,88c0.38,0.29,0.69,0.59,1,0.93c0.15,0.17,0.29,0.34,0.42,0.52l0.1,0.14c0.05,0.09,0.1,0.2,0.11,0.28
			c0.03,0.19-0.01,0.32-0.05,0.45c-0.37,0.92-0.98,1.51-1.54,2.17c-0.58,0.64-1.2,1.24-1.82,1.82c-0.63,0.58-1.26,1.16-1.94,1.69
			c0.63-0.58,1.22-1.2,1.8-1.83c0.58-0.63,1.14-1.27,1.66-1.94c0.5-0.66,1.07-1.38,1.28-2.08c0.02-0.08,0.03-0.16,0.01-0.18
			c0-0.02-0.01-0.01,0-0.01l-0.1-0.11c-0.13-0.15-0.27-0.3-0.42-0.44c-0.29-0.28-0.62-0.55-0.94-0.75l-0.01-0.01
			c-0.18-0.12-0.24-0.36-0.12-0.55c0.12-0.18,0.36-0.24,0.55-0.12C167.72,87.99,167.73,88,167.73,88z"/>
	</g>
	<path class="st53" d="M161.22,96.43c-0.06,0-0.67,0-0.67,0v1.14L160.51,98l-1.49,0.06L159,98.61l3.07-0.12"/>
	<line class="st54" x1="158.74" y1="98.94" x2="157.01" y2="99.2"/>
	<line class="st54" x1="158.76" y1="97.75" x2="157.54" y2="97.49"/>
	<line class="st54" x1="160.67" y1="99.02" x2="158.19" y2="100.49"/>
	<line class="st54" x1="161.71" y1="99.39" x2="160.38" y2="100.75"/>
	<line class="st19" x1="188.27" y1="126.42" x2="187.58" y2="127.34"/>
	<line class="st19" x1="187.44" y1="126.51" x2="187.23" y2="126.73"/>
	<line class="st19" x1="187.24" y1="126.05" x2="187" y2="126.14"/>
	<line class="st19" x1="186.93" y1="125.5" x2="186.77" y2="125.67"/>
	<path class="st55" d="M223.39,56.51c0,0-2.89,3.42-10.25,1.31s-9.64-8.25-9.64-8.25l2.79-9.02c0,0,9.48-10.07,11.58-10.07
		s2.45,0,2.45,0S225.49,54.41,223.39,56.51z"/>
	<path class="st56" d="M217.87,32.59c0,0-2.63,5.78-7.89,8.41c-1.05,1.05-3.27,4.95-3.27,4.95s-4.62,3.46-0.94-2.32
		C208.05,40.06,214.19,32.07,217.87,32.59z"/>
	<path class="st56" d="M222.6,56.25c0,0,1.58,2.63-8.41,2.1C211.03,57.3,222.6,56.25,222.6,56.25z"/>
	<path class="st57" d="M221.28,54.94c-3.15-1.05-8.74-6.57-8.74-6.57"/>
	<path class="st57" d="M210.24,49.68c0,0,5.26,5.78,8.41,6.31"/>
	<path class="st57" d="M206.79,50.73c0,0,5.26,5.85,8.56,6.61"/>
	<path class="st57" d="M211.45,56.73c0,0,8.78-1.27,9.83-2.85"/>
	<path class="st57" d="M208.76,54.67c0,0,5.69,0.26,9.37-1.84"/>
	<path class="st57" d="M206.79,52.54c0,0,7.59,0.19,9.73-2.13"/>
	<path class="st58" d="M220.5,29.97c1.31,0.79-4.99,17.61-17.55,19.71c-4.79,7.36-35.28,53.62-35.28,53.62s-2.55,1.12-2.06-1.02
		c0.49-1.36,32.13-47.78,36.09-53.75C201.72,43.35,211.52,27.62,220.5,29.97z M204.25,47.05c11.25-4.21,14.41-15.77,14.41-15.77
		C213.14,32.07,205.51,41.79,204.25,47.05z"/>
	<radialGradient id="SVGID_7_" cx="210.557" cy="38.7559" r="8.6874" gradientUnits="userSpaceOnUse">
		<stop  offset="0" style="stop-color:#A85130"/>
		<stop  offset="1" style="stop-color:#2C1B1A"/>
	</radialGradient>
	<path class="st59" d="M218.92,29.97c0,0,0,1.05-1.05,1.58c-6.05,2.89-13.14,11.04-13.67,15.77c-1.84,0.79-2.1,0-2.1,0
		s3.42-12.88,14.77-17.35C219.71,29.7,218.92,29.97,218.92,29.97z"/>
	<path class="st60" d="M188.72,92.26c0,0,1.02-2.63-1.61-4.21c-2.63-1.58-3.15-3.15-3.15-3.15s1.05-4.73,0-5.78
		c-0.63-0.63-4.61-0.91-3.64,1.36c-0.14,0.12-0.61-0.33-0.76-0.19c-0.05,0.37-0.37,1.08-0.25,1.28c-0.15,0.15-0.53-0.39-0.69-0.23
		c-0.17,0.17-0.11,0.81-0.46,1.26c-0.17,0.27-0.7,0.59-0.8,0.91c-0.45,1.48,0.04,2.97,3.44,2.97c1.58,1.58,3.15,6.83,5.78,6.83
		C187.64,93.31,188.72,92.26,188.72,92.26z"/>
	<line class="st61" x1="178.33" y1="82.71" x2="179.55" y2="83.29"/>
	<line class="st61" x1="179.26" y1="81.61" x2="180.35" y2="82.09"/>
	<line class="st62" x1="180.41" y1="80.44" x2="181.42" y2="80.79"/>
	<g>
		<path class="st63" d="M181.07,78.86c-0.52,0.01-0.89,0.53-0.83,1.02c0.01,0.12,0.04,0.24,0.08,0.36c0.02,0.06,0.04,0.12,0.03,0.2
			c-0.01,0.1-0.15,0.11-0.2,0.08c-0.13-0.03-0.24-0.09-0.35-0.14c-0.11-0.04-0.25-0.08-0.26,0c0.01,0.23-0.07,0.51-0.15,0.73
			c-0.04,0.11-0.07,0.23-0.06,0.33c0,0.05,0.02,0.1,0.05,0.16l0.02,0.05c0,0,0,0.01,0.01,0.03l0,0.02c0,0.02-0.04,0.06-0.06,0.06
			c-0.06,0-0.07-0.02-0.08-0.02l-0.08-0.07c-0.16-0.15-0.42-0.36-0.51-0.25c-0.11,0.14-0.07,0.41-0.13,0.68
			c-0.11,0.55-0.59,0.88-0.87,1.24c-0.31,0.36-0.31,0.83-0.13,1.27c0.16,0.44,0.45,0.82,0.85,1.03c0.4,0.22,0.87,0.31,1.35,0.33
			c0.24,0.01,0.48,0.01,0.73,0.01c0.03-0.01,0.2,0,0.29,0.06c0.09,0.05,0.15,0.1,0.2,0.15c0.11,0.1,0.19,0.21,0.27,0.32
			c0.3,0.43,0.53,0.87,0.78,1.3c0.48,0.87,0.95,1.74,1.48,2.56c0.53,0.81,1.13,1.6,1.88,2.09c0.37,0.24,0.78,0.37,1.17,0.32
			c0.39-0.05,0.77-0.27,1.1-0.56c0.16-0.14,0.41-0.13,0.56,0.03c0.14,0.16,0.13,0.41-0.03,0.56c0,0-0.01,0.01-0.01,0.01
			c-0.42,0.34-0.94,0.65-1.54,0.7c-0.6,0.06-1.19-0.16-1.64-0.47c-0.9-0.64-1.48-1.5-2.01-2.35c-0.53-0.86-0.97-1.76-1.42-2.64
			c-0.23-0.44-0.45-0.88-0.71-1.28c-0.13-0.19-0.28-0.39-0.37-0.35c-0.25-0.01-0.5-0.01-0.76-0.04c-0.51-0.05-1.04-0.16-1.5-0.44
			c-0.47-0.28-0.8-0.75-0.96-1.25c-0.07-0.25-0.14-0.51-0.11-0.79c0.03-0.28,0.16-0.54,0.33-0.74c0.34-0.39,0.76-0.67,0.87-1.13
			c0.07-0.21-0.01-0.49,0.2-0.75c0.15-0.15,0.35-0.06,0.45,0.01c0.11,0.07,0.21,0.16,0.3,0.25l0.06,0.06c0,0.01,0.01,0-0.04,0
			c-0.03,0-0.06,0.04-0.06,0.06l0,0.01c0,0.01,0,0.01,0,0.01l-0.01-0.03c-0.02-0.06-0.05-0.13-0.05-0.2
			c-0.01-0.14,0.03-0.27,0.08-0.39c0.1-0.24,0.16-0.44,0.18-0.71c0.01-0.09,0.14-0.14,0.2-0.12c0.07,0.01,0.13,0.03,0.19,0.06
			c0.12,0.05,0.23,0.11,0.34,0.14c0.14,0.06,0.12-0.07,0.09-0.19c-0.04-0.12-0.07-0.24-0.07-0.37
			C180.14,79.37,180.55,78.85,181.07,78.86z"/>
	</g>
</g>
</svg>
